<svg width="21" height="21" viewBox="0 0 21 21" fill="none" xmlns="http://www.w3.org/2000/svg">
<path d="M0 16.317L0.137794 15.6676L3.08452 1.82914L3.23646 1.11736L3.94325 1.2913L4.85669 1.51553C5.01372 1.10542 5.26075 0.741362 5.61582 0.483192C5.95273 0.237976 6.36159 0.220384 6.68396 0.497334C7.0556 0.816483 7.09316 1.43526 7.08146 1.92779C7.0801 1.97412 7.07868 2.0179 7.07733 2.06163L7.68355 2.21079C7.70176 2.16361 7.72762 2.12051 7.7486 2.07452C7.90637 1.72647 8.12748 1.41473 8.43815 1.18897C8.77506 0.94387 9.18392 0.926165 9.50629 1.20306C9.85627 1.50428 9.90967 2.07141 9.90481 2.54827C9.90379 2.60993 9.90311 2.67006 9.90107 2.72809C9.90034 2.73777 9.90034 2.74653 9.89972 2.75598L10.5102 2.90633C10.516 2.89253 10.5236 2.8798 10.5292 2.866C10.5526 2.80989 10.5807 2.75666 10.6072 2.70275C10.7628 2.38671 10.9719 2.10337 11.2594 1.8947C11.5966 1.64959 12.0056 1.63189 12.3277 1.90884C12.6568 2.19195 12.7245 2.71124 12.7274 3.16863C12.7278 3.23046 12.7266 3.29002 12.7249 3.34897C12.7238 3.38393 12.7231 3.41702 12.7218 3.45056L13.3369 3.60176C13.3517 3.56471 13.3717 3.531 13.3879 3.49463C13.4127 3.43919 13.4377 3.38421 13.4659 3.33132C13.6179 3.04668 13.8169 2.79264 14.0811 2.60076C14.4183 2.35572 14.8273 2.33795 15.1494 2.6149C15.458 2.88043 15.5357 3.35304 15.5462 3.78843C15.5475 3.85009 15.5483 3.90965 15.5475 3.96928C15.5469 4.02952 15.5459 4.08812 15.5438 4.14492L15.7032 4.18417L16.1684 4.2865C16.1913 4.22999 16.2198 4.17744 16.2462 4.12302C16.2727 4.06878 16.2943 4.01159 16.3242 3.95938C16.4713 3.70539 16.6614 3.48111 16.9024 3.30615C17.2396 3.06104 17.6486 3.04334 17.9706 3.32029C18.2591 3.56828 18.3456 3.99711 18.3647 4.40733C18.3674 4.46865 18.3698 4.52928 18.3704 4.58936C18.3707 4.65068 18.3695 4.71098 18.3678 4.76952L19.7328 5.06933L21 17.8941L16.5884 16.6011L16.551 16.7726L16.5146 16.9452L16.4621 17.1945L20.0343 18.3268L20.9834 18.6281L20.0565 18.9919L15.7987 20.6624L15.7257 20.691L15.7249 20.6945L15.72 20.6931L15.6886 20.7056L15.5746 20.6738L6.97211 18.2651L6.63594 18.1711L6.63729 18.1643L0.638466 16.4944L0 16.317ZM6.21101 1.02216C6.17724 0.98375 6.1752 0.988388 6.16072 0.99116C6.07118 1.00836 5.99606 1.07018 5.90617 1.15843C5.77703 1.28604 5.67572 1.43775 5.59274 1.60134C5.57826 1.62997 5.5631 1.65717 5.55003 1.68642L6.37907 1.89017C6.38043 1.85244 6.38043 1.81335 6.38043 1.77427C6.38116 1.48985 6.35158 1.18439 6.21101 1.02216ZM9.01479 1.72754C8.98175 1.68913 8.9886 1.69377 8.97417 1.69655C8.88457 1.7138 8.81364 1.77557 8.72409 1.86381C8.6152 1.97095 8.53188 2.09732 8.45614 2.23065C8.42785 2.28026 8.39827 2.32862 8.37479 2.38117L8.78948 2.49159L9.12984 2.58407C9.12984 2.58079 9.12984 2.57734 9.12984 2.57412C9.12984 2.51518 9.16667 2.45459 9.16565 2.39361C9.15943 2.13539 9.14155 1.8736 9.01479 1.72754ZM12.0194 3.01245C12.0075 2.78392 11.9665 2.56281 11.8544 2.43293C11.8208 2.39452 11.8187 2.39916 11.8043 2.40193C11.7147 2.41918 11.6396 2.48095 11.5499 2.5692C11.4617 2.65603 11.3887 2.75541 11.3227 2.85972C11.29 2.91154 11.2593 2.96494 11.2318 3.0202C11.2224 3.03932 11.2102 3.05657 11.2015 3.07603L12.023 3.27803C12.0237 3.25048 12.0237 3.22243 12.0237 3.19448C12.024 3.1339 12.0226 3.07315 12.0194 3.01245ZM14.6673 3.13837C14.6337 3.09996 14.6358 3.1046 14.6213 3.10737C14.5317 3.12462 14.4587 3.18639 14.3695 3.27458C14.3025 3.3406 14.245 3.41357 14.1911 3.49004C14.1554 3.5405 14.1265 3.59565 14.0962 3.6499C14.0733 3.69035 14.0474 3.72892 14.0274 3.77112C14.0256 3.77508 14.0242 3.77921 14.0228 3.78351L14.773 3.9716C14.773 3.91972 14.81 3.86706 14.809 3.81349C14.8079 3.75217 14.822 3.69103 14.8167 3.63078C14.7988 3.43444 14.7649 3.25139 14.6673 3.13837ZM17.663 4.43244C17.6599 4.37011 17.6549 4.30828 17.6468 4.24838C17.6246 4.08614 17.5809 3.93975 17.4977 3.84381C17.4641 3.8054 17.462 3.81004 17.4476 3.81281C17.358 3.83007 17.2829 3.89184 17.1932 3.98002C17.1488 4.02375 17.1127 4.0746 17.0741 4.1228C17.0342 4.17292 16.9953 4.22405 16.9613 4.27864C16.9287 4.33102 16.8977 4.38385 16.8701 4.43917L17.6666 4.61413C17.6673 4.55383 17.6663 4.49359 17.663 4.43244ZM6.82068 17.4846L6.9905 17.5318L7.16031 17.579L15.1886 19.8151L15.7123 17.3281L15.7489 17.1552L15.7856 16.9817L15.835 16.7474L15.8712 16.5742L15.9075 16.4013L18.1995 5.52452L16.6564 5.14388C16.5969 5.54279 16.618 5.95731 16.6998 6.31311C16.8018 6.75591 16.1219 6.94377 16.0195 6.5008C15.9122 6.03531 15.8931 5.49589 15.9785 4.97752L13.833 4.44981C13.7755 4.84521 13.7966 5.25492 13.8778 5.60767C13.9797 6.05047 13.2998 6.23833 13.1975 5.79536C13.091 5.33298 13.0715 4.79786 13.1548 4.28328L11.01 3.75591C10.9546 4.14791 10.9758 4.5535 11.0562 4.90257C11.1581 5.34537 10.4782 5.53323 10.3759 5.09031C10.27 4.63099 10.2501 4.10051 10.3315 3.58954L8.18682 3.06217C8.13308 3.45056 8.15447 3.8515 8.23434 4.19747C8.33633 4.64021 7.656 4.82813 7.55373 4.38515C7.44835 3.92945 7.42838 3.40316 7.50763 2.89525L5.70276 2.4516L5.52158 2.40719L5.36381 2.36827C5.359 2.40549 5.35419 2.44204 5.35074 2.47954C5.31697 2.82901 5.34113 3.18277 5.4128 3.49236C5.51473 3.93517 4.83446 4.12302 4.73219 3.68011C4.62743 3.22752 4.60752 2.70586 4.68394 2.20157L3.77321 1.97751L0.826096 15.8157L6.82068 17.4846ZM13.0052 13.5858L15.1574 14.1018L15.6739 11.9493L13.5217 11.4331L13.0052 13.5858ZM12.5521 13.4494L13.0683 11.297L10.9161 10.7807L10.3998 12.9328L12.5521 13.4494ZM10.464 10.6436L8.31212 10.1269L7.79544 12.2791L9.94757 12.7957L10.464 10.6436ZM5.70677 9.4749L5.19009 11.627L6.15042 11.8574L6.33087 11.9008L6.51206 11.9443L7.34285 12.1434L7.85885 9.9909L6.31436 9.6201L6.13317 9.57689L5.95273 9.5335L5.70677 9.4749ZM5.25379 9.33869L3.10138 8.82235L2.58503 10.9746L4.73745 11.4909L5.25379 9.33869ZM10.623 10.1975L11.1395 8.04529L8.98724 7.52901L8.47056 9.68125L10.623 10.1975ZM8.01933 9.54431L8.53533 7.39206L6.38252 6.87572L6.15936 7.80692L6.02915 8.35149L5.89825 8.89605L5.86658 9.02797L5.91064 9.03849L6.09109 9.08187L6.27153 9.12526L8.01933 9.54431ZM3.77785 6.22283L3.26151 8.37508L5.41399 8.89136L5.77149 7.40236L5.9017 6.85762L5.93067 6.73911L5.89067 6.72967L5.71023 6.68628L3.77785 6.22283ZM12.3548 16.0779L12.329 16.1853L13.8245 16.5439L14.4812 16.7013L14.5112 16.5763L14.5603 16.3724L14.6016 16.2012L14.6428 16.0297L14.9978 14.5493L12.8455 14.033L12.5161 15.4066L12.4748 15.5778L12.4336 15.7496L12.3962 15.9063L12.3548 16.0779ZM9.7471 15.4365L9.72436 15.532L11.0601 15.8526L11.8769 16.0483L11.9042 15.9353L11.9453 15.7631L11.9803 15.6163L12.0216 15.4448L12.0628 15.2737L12.3927 13.8959L10.24 13.38L9.93592 14.6496L9.89457 14.8211L9.85327 14.9922L9.82986 15.0921L9.78856 15.264L9.7471 15.4365ZM7.27293 14.2364L7.11834 14.8789L7.50372 14.9715L7.6749 15.0125L7.84641 15.0538L9.27103 15.3955L9.29519 15.2936L9.33648 15.1213L9.37778 14.9501L9.39916 14.8599L9.44045 14.6884L9.48112 14.5168L9.78664 13.2434L7.63456 12.7271L7.3545 13.8937L7.31349 14.0653L7.27293 14.2364Z" fill="#676767"/>
</svg>
