<svg width="18" height="17" viewBox="0 0 18 17" fill="none" xmlns="http://www.w3.org/2000/svg">
<path fill-rule="evenodd" clip-rule="evenodd" d="M4.95729 11.0113C4.6008 9.80635 4.25122 8.62359 3.90235 7.4408C3.32573 5.48918 2.74567 3.54493 2.17668 1.58593C2.1719 1.54689 2.15964 1.50933 2.14068 1.47557C2.12172 1.4418 2.09647 1.41254 2.06647 1.38966C2.03647 1.36677 2.00237 1.35076 1.96632 1.34255C1.93026 1.33435 1.893 1.33417 1.85687 1.34201C1.47477 1.3568 1.09543 1.34932 0.710562 1.34932C0.621844 1.36083 0.531853 1.3522 0.446483 1.32396C0.361113 1.29572 0.282303 1.24859 0.21521 1.18553C0.148118 1.12248 0.0942605 1.04497 0.0571771 0.95813C0.0200936 0.871291 0.00060302 0.777075 1.37744e-05 0.681634C-0.000575471 0.586193 0.0177469 0.49168 0.0537549 0.404326C0.0897628 0.316972 0.142649 0.238746 0.208958 0.174756C0.275266 0.110765 0.353505 0.0624262 0.438519 0.0329884C0.523533 0.00355057 0.613407 -0.00633183 0.70226 0.0039311H2.51378C2.66578 -0.00859494 2.81696 0.0374935 2.93989 0.133787C3.06282 0.23008 3.14936 0.370173 3.18384 0.528767C3.37973 1.1867 3.57908 1.83726 3.76183 2.49519C3.76661 2.53219 3.77832 2.56779 3.79624 2.59987C3.81416 2.63194 3.83794 2.65983 3.86616 2.6819C3.89438 2.70396 3.92646 2.71972 3.9605 2.72828C3.99455 2.73684 4.02986 2.738 4.06433 2.73171C8.46865 2.72432 12.8739 2.72432 17.2801 2.73171C17.4407 2.70672 17.6042 2.74895 17.7365 2.84947C17.8688 2.94999 17.9597 3.10114 17.9903 3.27143C18.0071 3.3748 18.0021 3.4808 17.9757 3.58186C17.487 5.67393 16.9953 7.76114 16.5006 9.84335C16.3622 10.4347 16.2226 11.0261 16.0818 11.6175C16.0721 11.7119 16.0446 11.8033 16.001 11.8862C15.9574 11.9691 15.8985 12.0417 15.828 12.0997C15.7575 12.1577 15.6767 12.1999 15.5906 12.2237C15.5044 12.2475 15.4146 12.2526 15.3266 12.2385C12.1687 12.2385 9.01089 12.241 5.85302 12.2459C5.58581 12.2467 5.32071 12.2967 5.06942 12.3937C4.89044 12.4571 4.73634 12.5824 4.63142 12.7497C4.52651 12.917 4.47676 13.1169 4.49004 13.3178C4.50578 13.5135 4.57519 13.6999 4.68956 13.8537C4.80393 14.0075 4.9582 14.122 5.13311 14.1827C5.15176 14.197 5.17343 14.206 5.19619 14.2092C5.21895 14.2123 5.24208 14.2093 5.26349 14.2005C5.28491 14.1917 5.30394 14.1774 5.31888 14.1588C5.33382 14.1402 5.34419 14.118 5.34907 14.094C5.51088 13.7437 5.76279 13.4498 6.07531 13.2468C6.38783 13.0439 6.74803 12.9403 7.11372 12.9481C7.4794 12.9558 7.83546 13.0747 8.14018 13.2907C8.44491 13.5067 8.6857 13.811 8.83436 14.1679C8.85427 14.2035 8.88189 14.2335 8.91489 14.2554C8.94789 14.2772 8.98532 14.2903 9.02404 14.2935C9.86923 14.3009 10.7144 14.2936 11.5589 14.3083C11.6112 14.3094 11.6622 14.2906 11.7028 14.2555C11.7435 14.2203 11.7712 14.171 11.7811 14.1161C11.9075 13.825 12.0967 13.57 12.3333 13.3721C12.5698 13.1742 12.847 13.039 13.1419 12.9777C13.4369 12.9163 13.7413 12.9306 14.0301 13.0193C14.3189 13.1079 14.5839 13.2685 14.8033 13.4878C14.9766 13.675 15.122 13.8894 15.2346 14.1235C15.2555 14.1851 15.2962 14.2367 15.3495 14.2692C15.4027 14.3017 15.465 14.3129 15.5253 14.3009C15.7046 14.2935 15.8866 14.3009 16.0673 14.3009C16.1525 14.297 16.2376 14.3117 16.3173 14.3439C16.3971 14.3761 16.47 14.4252 16.5314 14.4884C16.5929 14.5515 16.6417 14.6274 16.675 14.7113C16.7083 14.7951 16.7252 14.8853 16.7249 14.9764C16.7246 15.0675 16.707 15.1575 16.6731 15.2411C16.6392 15.3248 16.5899 15.4001 16.5279 15.4628C16.466 15.5254 16.3928 15.574 16.3128 15.6055C16.2328 15.6371 16.1476 15.651 16.0625 15.6464C15.8613 15.6378 15.6598 15.6403 15.4588 15.6538C15.421 15.6598 15.3848 15.674 15.3524 15.6956C15.32 15.7172 15.2921 15.7457 15.2706 15.7794C15.1186 16.1431 14.8711 16.4519 14.558 16.6683C14.245 16.8847 13.8799 16.9995 13.507 16.9988C13.1341 16.998 12.7694 16.8816 12.4572 16.6639C12.1449 16.4461 11.8985 16.1363 11.7479 15.772C11.729 15.7393 11.7033 15.7116 11.6729 15.6911C11.6424 15.6706 11.6079 15.6578 11.5721 15.6538C10.7206 15.6464 9.86922 15.639 9.01711 15.6538C8.97852 15.659 8.94159 15.6737 8.90927 15.6968C8.87694 15.7199 8.85009 15.7507 8.8309 15.7868C8.6766 16.1533 8.4252 16.4634 8.10771 16.6789C7.79023 16.8945 7.42059 17.006 7.04443 16.9997C6.66827 16.9935 6.30207 16.8696 5.99107 16.6436C5.68006 16.4175 5.43787 16.0991 5.2944 15.7277C5.24242 15.6453 5.16294 15.5871 5.07219 15.5651C4.65843 15.4876 4.27325 15.2878 3.96021 14.9887C3.64717 14.6895 3.41877 14.3028 3.30082 13.8722C3.15683 13.3094 3.22125 12.7091 3.4807 12.1956C3.74015 11.6822 4.17472 11.2952 4.69425 11.1148C4.77385 11.0779 4.85554 11.0483 4.95729 11.0113ZM7.71091 5.45218V4.09199H4.24015C4.35921 4.49857 4.47896 4.89036 4.58626 5.28216C4.59043 5.30932 4.59965 5.33529 4.61334 5.3586C4.62703 5.38191 4.64493 5.40205 4.666 5.41788C4.68708 5.43372 4.7109 5.44494 4.73607 5.45082C4.76125 5.45671 4.78727 5.45716 4.81261 5.45218C5.58304 5.44478 6.35209 5.45218 7.12252 5.45218H7.71228H7.71091ZM9.00534 5.43738H12.2158V4.08459H9.00534V5.43738ZM9.00534 8.16524H12.2151V6.80497H9.00534V8.16524ZM12.2165 10.8856V9.53283H9.00811V10.8856H12.2165ZM16.239 5.44478C16.3449 4.99384 16.4466 4.54292 16.5567 4.08459H13.5151V5.44478H16.239ZM5.04449 6.81236C5.16355 7.21895 5.28192 7.61082 5.3906 7.99523C5.39477 8.02468 5.40446 8.05288 5.41908 8.07825C5.43369 8.10362 5.45295 8.12562 5.47569 8.14286C5.49843 8.16011 5.5242 8.17231 5.55144 8.17869C5.57869 8.18507 5.60686 8.18554 5.63427 8.18004C6.27595 8.17265 6.91901 8.17264 7.56069 8.17264C7.61308 8.17123 7.66534 8.16628 7.71714 8.15784V6.81236H5.04728H5.04449ZM13.5137 8.17264C14.1859 8.17264 14.8462 8.18003 15.5066 8.16524C15.5345 8.15485 15.5596 8.13729 15.5796 8.11408C15.5997 8.09087 15.6141 8.06269 15.6215 8.03214C15.6824 7.81037 15.7316 7.58117 15.7835 7.3594C15.8257 7.17459 15.8672 6.99718 15.9102 6.81236H13.5137V8.17264ZM5.84402 9.52543C5.97554 9.96898 6.09321 10.3829 6.22542 10.7895C6.2455 10.8205 6.27212 10.8461 6.30314 10.8641C6.33417 10.882 6.36873 10.8919 6.40401 10.893C6.77088 10.9004 7.13913 10.9004 7.5067 10.9004C7.57473 10.8994 7.64268 10.8945 7.71021 10.8856V9.52543H5.84123H5.84402ZM15.2726 9.53283H13.5193V10.9004C13.9713 10.9004 14.4046 10.9004 14.8386 10.893C14.8647 10.8896 14.8897 10.8799 14.9116 10.8645C14.9336 10.8491 14.952 10.8285 14.9653 10.8043C15.0712 10.3903 15.1674 9.96899 15.2726 9.53283ZM14.2343 14.9811C14.2343 14.8796 14.2156 14.7792 14.1793 14.6855C14.1429 14.5917 14.0896 14.5066 14.0224 14.4349C13.9553 14.3631 13.8755 14.3062 13.7878 14.2674C13.7 14.2285 13.6059 14.2085 13.511 14.2085C13.416 14.2085 13.3219 14.2285 13.2341 14.2674C13.1464 14.3062 13.0666 14.3631 12.9995 14.4349C12.9323 14.5066 12.879 14.5917 12.8427 14.6855C12.8063 14.7792 12.7876 14.8796 12.7876 14.9811C12.7876 15.186 12.8638 15.3824 12.9995 15.5273C13.1351 15.6722 13.3191 15.7536 13.511 15.7536C13.7028 15.7536 13.8868 15.6722 14.0224 15.5273C14.1581 15.3824 14.2343 15.186 14.2343 14.9811ZM7.08306 14.2048C6.89015 14.2065 6.70549 14.2887 6.56843 14.4337C6.43136 14.5787 6.35274 14.7751 6.34932 14.9811C6.35513 15.1817 6.43387 15.372 6.56883 15.5118C6.70378 15.6515 6.88436 15.7297 7.07233 15.7297C7.26031 15.7297 7.4409 15.6515 7.57586 15.5118C7.71082 15.372 7.78955 15.1817 7.79537 14.9811C7.79213 14.779 7.71648 14.5858 7.58399 14.4414C7.4515 14.2971 7.27223 14.2124 7.08306 14.2048Z" fill="black"/>
</svg>
