<svg width="279" height="73" viewBox="0 0 279 73" fill="none" xmlns="http://www.w3.org/2000/svg">
<g clip-path="url(#clip0)">
<path d="M21.9158 59.1385L35.7125 28.5751L49.5092 59.1385L45.1374 62.3198L41.7308 54.2529H35.8828H35.5989H29.6941L26.2875 62.3198L21.9158 59.1385ZM100.892 19.2584C105.037 23.6327 107.478 27.3821 109.749 32.8358C110.714 35.2218 110.771 36.1307 111.339 38.1191L111.907 40.8459C112.418 44.709 112.361 48.856 111.907 52.6623C111.452 56.3549 110.828 57.3774 110.26 59.9907L107.932 66.6942C108.273 66.5806 108.159 66.6374 108.386 66.4669L109.295 65.4444C110.885 63.5697 113.269 59.8202 114.064 57.5479C114.518 56.2412 114.973 55.2187 115.37 53.8553C117.414 47.0949 117.073 38.9144 114.178 32.3245C112.304 28.0638 112.077 28.0638 109.579 24.5984L109.465 24.428L109.408 24.3712C107.875 22.4397 104.923 19.8265 102.822 18.4062C101.857 17.7245 97.2582 14.9409 96.293 14.9977L100.892 19.2584ZM157.839 28.4615C158.407 28.2911 159.201 27.0412 159.542 26.4732C161.132 23.4054 160.053 20.1673 157.612 17.9518C156.874 17.3268 155.965 16.6451 155.114 16.1907C154.546 15.8498 152.842 15.0545 152.104 14.9977C152.332 15.3385 153.524 16.1339 154.546 17.3268C157.555 20.7922 157.498 24.3712 157.839 28.4615ZM128.088 72.7728C133.652 73.1704 138.592 68.6257 148.016 67.4895C149.322 67.3191 150.799 67.5463 151.877 67.0918C152.672 66.8078 153.978 65.3876 153.013 64.5922C152.161 63.9105 147.051 65.2739 145.916 65.5012C141.828 66.3533 137.853 68.8529 134.277 70.6708C133.425 71.1253 132.289 71.6366 131.324 71.9774C130.473 72.2615 128.712 72.4887 128.088 72.7728ZM120.423 72.7728C126.555 73.1136 133.936 67.5463 138.478 65.1035C142.169 63.1152 143.474 62.7175 147.676 61.4677C149.152 61.0132 151.537 60.6156 153.126 60.5019C154.262 60.4451 154.886 60.5019 155.738 59.877C156.192 59.4794 157.044 58.3432 156.249 57.6615C155.057 56.6957 147.165 59.0249 145.689 59.593C135.128 63.6833 131.551 69.8755 123.092 72.2615C122.126 72.4319 121.218 72.5455 120.423 72.7728ZM151.196 29.4272C151.196 30.677 151.026 34.0856 150.742 35.165C150.685 35.5058 150.458 36.3012 150.458 36.5852C151.707 36.5852 153.637 33.5175 154.205 32.4949C154.319 32.3245 154.262 32.3813 154.375 32.1541L154.432 31.9837C156.136 28.3479 155.681 24.144 153.808 20.6218C152.332 17.8381 148.471 15.0545 145.802 14.9409C145.973 15.2249 145.802 14.9977 146.029 15.3385L146.313 15.6794C147.733 17.4405 148.584 19.1447 149.493 21.1899C150.515 23.3486 151.139 26.6436 151.196 29.4272ZM166.582 44.3681C166.185 43.9136 165.504 43.1751 164.766 43.0615C164.822 43.5728 164.993 43.6296 165.277 44.0272C168.399 48.9697 169.081 55.9004 166.355 61.1837L164.822 63.6833C163.914 64.9331 163.289 65.5012 162.324 66.5805L156.136 71.0117C158.407 71.523 163.006 68.5121 164.709 67.2055C167.037 65.3876 168.797 63.172 170.159 60.3315C172.714 54.5938 170.67 48.6856 166.582 44.3681ZM136.037 4.48794C132.63 4.43113 129.564 3.29494 124.625 3.91984C123.603 4.03346 120.253 4.8856 121.388 6.41946C121.672 6.81712 122.694 7.38521 123.205 7.66926C123.83 8.01012 124.738 8.29416 125.249 8.69183C122.524 9.48716 112.19 7.55564 111.169 7.66926C113.269 8.57821 116.789 9.37354 119.344 9.82802C120.253 9.99844 127.861 11.0778 128.258 9.31673C128.201 8.80545 128.145 8.69183 127.804 8.29416C126.782 7.21479 126.328 7.21479 125.533 6.64669C125.306 6.47626 125.476 6.58988 125.306 6.47626C128.088 6.30584 134.333 8.23735 135.753 8.35097C135.696 9.37354 135.185 14.0319 135.355 14.4864H138.137C138.251 13.9751 137.57 8.46459 137.513 7.2716L136.832 0.454475C136.832 0.397665 136.831 0.397665 136.775 0.340856C136.775 0.284047 136.775 0.284047 136.718 0.227237L136.661 0C136.377 0.568093 136.377 1.47704 136.377 2.21556L136.15 3.86304C136.093 4.20389 136.207 3.74942 136.093 4.09027L136.037 4.48794ZM144.099 40.221C144.61 39.8802 145.007 39.4825 145.405 38.9712C148.698 35.2218 150.174 29.8249 148.584 24.8825C147.392 21.0195 145.007 17.9518 141.544 16.1339C140.806 15.7362 138.592 14.6568 137.683 14.7136L139.5 16.8724C143.588 21.8716 145.405 27.9502 144.667 34.5969C144.44 36.4148 144.723 35.7899 144.269 38.4599L143.985 39.937C144.042 40.221 144.042 40.0506 144.099 40.221ZM106.399 71.7502C110.828 74.1362 117.3 72.8296 121.672 70.9549C125.192 69.421 127.407 67.7735 130.359 65.7852C133.255 63.7969 134.844 62.2062 138.535 60.1043C139.614 59.4794 140.295 58.9681 141.487 58.4C144.667 56.923 148.073 55.2755 151.707 54.7642L155.908 54.3097C156.874 54.1393 158.066 52.8327 157.328 51.7533C156.76 50.9012 154.489 51.4125 153.581 51.5829C149.947 52.151 146.313 53.344 143.02 54.9346C140.125 56.3549 137.115 58.3432 134.504 60.2747C128.485 64.7626 122.013 71.3525 114.348 72.4319C112.758 72.6591 111.509 72.6591 109.976 72.4887C109.181 72.3183 106.74 71.6366 106.399 71.7502ZM104.81 70.3868C105.15 70.4436 106.456 71.4093 108.614 71.5798C110.26 71.7502 111.907 71.6366 113.326 71.2957C117.811 70.2732 122.581 67.0918 126.158 64.1377L131.608 59.593C132.46 58.8545 133.368 58.2296 134.447 57.4342C135.412 56.6957 136.321 56.014 137.342 55.3323C142.963 51.6965 148.016 49.0833 154.83 47.8335C155.511 47.7198 156.533 47.7198 156.93 47.3222C157.328 46.8677 157.101 45.6747 156.874 45.2202C156.363 44.1409 153.864 45.0498 152.956 45.277C150.344 46.0156 147.96 46.7541 145.575 47.8903L141.487 50.1058C141.203 50.2763 140.919 50.4467 140.692 50.5603C139.216 51.4693 137.626 52.4918 136.264 53.5712C133.482 55.6732 131.949 56.923 129.394 59.2521C124.795 63.456 119.685 68.9097 113.44 70.7276C108.557 72.1479 106.002 70.3868 104.81 70.3868ZM104.299 69.1938C104.98 69.9891 106.853 70.5572 108.273 70.614C109.692 70.7276 111.566 70.2732 112.758 69.8187C115.54 68.7961 117.3 67.7167 119.628 66.0125C122.013 64.3082 123.262 63.172 125.476 61.2405L129.564 57.3206C133.141 53.8553 138.535 49.5377 142.963 46.8677C144.042 46.2428 145.121 45.5611 146.37 44.8794C147.619 44.1977 148.698 43.7432 149.947 43.1751C155.852 40.6187 156.703 41.8685 155.738 39.2553C155.17 37.6646 153.524 38.6304 152.104 39.1984C146.484 41.3004 140.125 45.277 135.639 49.2537C132.744 51.8101 130.132 54.1393 127.52 57.0366C127.293 57.3206 127.123 57.4911 126.896 57.7751C126.669 58.0591 126.498 58.1728 126.271 58.4C121.956 62.8311 115.427 69.9891 108.784 70.1027C107.932 70.1027 106.967 70.0459 106.229 69.8187C105.434 69.7051 105.037 69.3074 104.299 69.1938ZM129.053 14.7704C129.28 14.9977 129.394 14.9977 129.678 15.2249C130.473 15.8498 132.119 17.5541 132.8 18.2926C134.674 20.4514 136.377 23.235 137.286 25.9619C138.478 29.484 139.159 35.2218 138.364 38.9712L137.57 43.1751C138.762 42.9479 140.919 39.028 141.374 38.0055C144.78 29.8249 141.658 20.3377 133.936 16.2475C133.766 16.1907 133.595 16.077 133.425 15.9634C132.8 15.6794 130.302 14.7136 129.621 14.6568C128.996 14.6 129.053 14.7704 129.053 14.7704ZM121.559 14.7704L122.921 16.077C129.905 22.8942 132.119 28.5183 132.005 38.0055C132.005 39.3121 131.722 42.0957 131.438 43.1751C131.154 44.4817 131.154 45.2202 130.756 46.6973C130.643 47.0949 130.473 47.4358 130.416 47.7198C131.211 47.6062 133.084 44.8226 133.482 44.1409C135.582 40.5619 136.264 37.7214 136.264 33.4607C136.207 27.8366 134.163 23.0078 130.189 19.3152C129.11 18.2926 127.634 17.27 126.328 16.5315C125.59 16.1339 122.07 14.5432 121.559 14.7704ZM160.678 52.3782C160.678 55.1619 160.451 57.3774 159.769 59.8202C159.599 60.3883 159.542 60.786 159.315 61.3541C157.669 66.0693 154.886 69.7619 150.401 71.9206C149.549 72.3183 149.266 72.2047 149.095 72.6591C149.663 72.8296 151.764 72.2047 152.388 71.9774C155.057 71.0117 157.782 68.7393 159.656 66.5237C164.141 61.1837 165.277 53.2304 163.63 46.2996C163.46 45.6179 163.346 45.277 163.233 44.6521L161.586 39.8802C160.507 36.9829 157.385 31.8132 160.791 31.0747C162.665 30.677 163.119 31.87 164.255 32.0405C164.027 31.0179 162.892 30.2226 161.87 29.9953C160.564 29.7113 159.145 30.0521 158.293 30.7907C155.795 33.0062 157.555 37.835 158.463 41.13C159.542 45.0498 160.678 47.5494 160.678 52.3782ZM122.808 54.2529C124.227 53.5144 126.669 49.3105 127.52 47.4358C128.883 44.3681 129.678 41.1868 129.678 37.7214C129.678 31.9837 128.201 27.3253 124.908 22.951C124.284 22.0988 123.773 21.6444 123.035 20.849C121.672 19.372 120.366 18.463 118.663 17.3837C116.733 16.1907 115.37 15.7362 113.326 14.884C113.383 15.3385 113.099 14.9409 114.064 15.793C118.777 19.9401 122.126 24.7121 124 30.9611C127.52 42.7206 122.751 53.0599 122.808 54.2529ZM115.711 60.2179C116.278 60.1043 116.222 59.9339 116.846 59.1385C118.095 57.6047 119.06 56.3549 119.969 54.5938C120.934 52.8327 121.729 51.0716 122.353 49.1401C124.227 43.1183 123.943 35.9603 121.502 30.2226C120.991 29.0296 120.537 28.1206 120.026 27.2117C118.095 23.7463 116.619 22.3829 114.007 19.9969C112.19 18.2926 107.819 15.7362 105.548 15.0545C105.604 15.509 106.626 16.077 107.421 16.9292C110.828 20.3377 111.679 21.2467 114.405 25.5074C115.767 27.6093 117.244 31.1883 117.925 33.6311C118.322 34.9377 118.89 38.8008 119.004 40.3346C119.117 42.5502 119.288 45.5611 118.833 47.7198C118.379 49.9922 118.266 51.9805 117.584 54.3097L116.165 58.6841C116.165 59.0249 115.824 59.8202 115.711 60.2179ZM209.449 60.2179V29.5977H218.022C221.542 29.5977 224.211 30.5066 226.141 32.1541C228.015 33.8584 228.98 36.1876 228.98 39.1416C228.98 41.9253 228.071 44.1977 226.198 45.9588C224.324 47.7198 221.599 48.6288 218.022 48.6288H215.126V60.2179H209.449ZM178.392 58.9113L192.075 28.6319V28.2911L192.132 28.1206L192.189 28.2911L192.245 28.1206L192.302 28.2911V28.6319L205.985 58.9113L201.614 62.0926L198.207 54.0257H192.359H192.075H186.227L182.821 62.0926L178.392 58.9113ZM192.189 38.9144L188.158 49.0833H192.018H192.302H196.163L192.189 38.9144ZM228.412 56.0708H232.67V29.5977H247.205V34.8241H238.064V56.0708H241.982V60.7292H228.412V56.0708ZM262.932 29.3704C267.474 29.3704 271.278 30.9043 274.344 34.0288C277.41 37.1533 279 40.9027 279 45.3339C279 49.765 277.467 53.5144 274.344 56.5821C271.222 59.6498 267.418 61.1837 262.932 61.1837C258.39 61.1837 254.586 59.6498 251.463 56.5821C248.341 53.5144 246.808 49.765 246.864 45.3339C246.864 40.9027 248.397 37.1533 251.463 34.0288C254.586 30.9043 258.39 29.3704 262.932 29.3704ZM262.875 55.6732C265.828 55.6732 268.326 54.6506 270.313 52.6054C272.3 50.5603 273.322 48.1175 273.322 45.2202C273.322 42.3798 272.3 39.937 270.313 37.8918C268.326 35.8467 265.828 34.8809 262.875 34.8809C259.923 34.8809 257.425 35.9035 255.438 37.8918C253.451 39.937 252.429 42.323 252.429 45.2202C252.429 48.1175 253.451 50.6171 255.438 52.6623C257.482 54.6506 259.98 55.6732 262.875 55.6732ZM215.126 35.1082V43.1183H218.476C220.009 43.1183 221.201 42.7774 222.053 42.1525C222.905 41.4708 223.302 40.5051 223.359 39.1416C223.359 37.835 222.962 36.8125 222.11 36.1307C221.258 35.449 220.066 35.1082 218.533 35.1082H215.126ZM75.3993 59.877V29.0296H91.978V34.5969H81.1337V41.7549H91.5238V47.3222H81.1337V54.4234H91.978V59.9907H75.3993V59.877ZM56.3791 60.3883V53.2304C40.9927 53.1167 40.2546 32.8358 56.3791 32.6086V29.1432H61.3755V32.6086C77.5568 32.8358 76.7051 53.1167 61.3755 53.2304V60.4451H56.3791V60.3883ZM56.3791 48.2311V37.551C49.6227 37.0965 47.4084 47.8335 56.3791 48.2311ZM61.3755 37.551V48.2311C70.6868 48.2879 68.3022 37.3805 61.3755 37.551ZM0 59.4226V29.4272H5.5641V42.4366L14.8755 29.4272H21.5183L10.2198 44.1977L21.348 59.1385L17.033 62.4903L5.5641 46.2996V59.4226H0ZM35.7125 39.1416L31.6813 49.3105H35.5421H35.826H39.7436L35.7125 39.1416Z" fill="#391E25"/>
</g>
<defs>
<clipPath id="clip0">
<rect width="279" height="73" fill="white"/>
</clipPath>
</defs>
</svg>
