<svg width="360" height="94" viewBox="0 0 360 94" fill="none" xmlns="http://www.w3.org/2000/svg">
<path d="M28.2784 76.1069L46.0806 36.774L63.8828 76.1069L58.2418 80.201L53.8462 69.8195H46.3004H45.9341H38.315L33.9194 80.201L28.2784 76.1069ZM130.183 24.7841C135.531 30.4135 138.681 35.2387 141.612 42.2572C142.857 45.3278 142.93 46.4976 143.663 49.0564L144.396 52.5656C145.055 57.5371 144.982 62.8741 144.396 67.7724C143.81 72.5245 143.004 73.8405 142.271 77.2035L139.267 85.8304C139.707 85.6842 139.56 85.7573 139.853 85.538L141.026 84.222C143.077 81.8094 146.154 76.9842 147.179 74.0598C147.766 72.3783 148.352 71.0623 148.864 69.3077C151.502 60.6077 151.062 50.0799 147.326 41.5992C144.908 36.116 144.615 36.116 141.392 31.6564L141.245 31.437L141.172 31.3639C139.194 28.8782 135.385 25.5152 132.674 23.6874C131.429 22.8101 125.495 19.2278 124.249 19.3009L130.183 24.7841ZM203.663 36.6278C204.396 36.4085 205.421 34.8001 205.861 34.069C207.912 30.1211 206.52 25.9538 203.37 23.1026C202.418 22.2984 201.245 21.421 200.147 20.8362C199.414 20.3975 197.216 19.374 196.264 19.3009C196.557 19.7395 198.095 20.7631 199.414 22.2984C203.297 26.758 203.223 31.3639 203.663 36.6278ZM165.275 93.6531C172.454 94.1649 178.828 88.3161 190.989 86.8539C192.674 86.6346 194.579 86.927 195.971 86.3422C196.996 85.9766 198.681 84.1489 197.436 83.1254C196.337 82.248 189.744 84.0027 188.278 84.2951C183.004 85.3917 177.875 88.6086 173.26 90.9481C172.161 91.5329 170.696 92.1909 169.451 92.6296C168.352 92.9951 166.081 93.2876 165.275 93.6531ZM155.385 93.6531C163.297 94.0918 172.821 86.927 178.681 83.7833C183.443 81.2245 185.128 80.7127 190.549 79.1043C192.454 78.5195 195.531 78.0077 197.582 77.8615C199.048 77.7884 199.853 77.8615 200.952 77.0573C201.538 76.5455 202.637 75.0833 201.612 74.206C200.073 72.9632 189.89 75.9606 187.985 76.6917C174.359 81.9556 169.744 89.9245 158.828 92.9951C157.582 93.2144 156.41 93.3607 155.385 93.6531ZM195.092 37.8707C195.092 39.4791 194.872 43.8656 194.505 45.2547C194.432 45.6934 194.139 46.7169 194.139 47.0824C195.751 47.0824 198.242 43.1345 198.974 41.8186C199.121 41.5992 199.048 41.6723 199.194 41.3799L199.267 41.1606C201.465 36.4816 200.879 31.0715 198.462 26.5387C196.557 22.9563 191.575 19.374 188.132 19.2278C188.352 19.5933 188.132 19.3009 188.425 19.7395L188.791 20.1782C190.623 22.4446 191.722 24.6379 192.894 27.2698C194.212 30.048 195.018 34.2883 195.092 37.8707ZM214.945 57.0984C214.432 56.5135 213.553 55.5631 212.601 55.4169C212.674 56.0749 212.894 56.148 213.26 56.6598C217.289 63.0203 218.169 71.9396 214.652 78.7388L212.674 81.9556C211.502 83.564 210.696 84.2951 209.451 85.6842L201.465 91.3867C204.396 92.0447 210.33 88.1699 212.527 86.4884C215.531 84.1489 217.802 81.2976 219.56 77.6422C222.857 70.2581 220.22 62.6547 214.945 57.0984ZM175.531 5.77564C171.136 5.70253 167.179 4.24034 160.806 5.04455C159.487 5.19077 155.165 6.28741 156.63 8.26136C156.996 8.77312 158.315 9.50422 158.974 9.86977C159.78 10.3084 160.952 10.674 161.612 11.1857C158.095 12.2093 144.762 9.72355 143.443 9.86977C146.154 11.0395 150.696 12.063 153.993 12.6479C155.165 12.8672 164.982 14.2563 165.495 11.9899C165.421 11.332 165.348 11.1857 164.908 10.674C163.59 9.28489 163.004 9.28489 161.978 8.5538C161.685 8.33447 161.905 8.48069 161.685 8.33447C165.275 8.11514 173.333 10.6009 175.165 10.7471C175.092 12.063 174.432 18.058 174.652 18.6429H178.242C178.388 17.9849 177.509 10.8933 177.436 9.358L176.557 0.584875C176.557 0.511766 176.557 0.511766 176.484 0.438656C176.484 0.365547 176.484 0.365547 176.41 0.292437L176.337 0C175.971 0.731094 175.971 1.90084 175.971 2.85127L175.678 4.97144C175.604 5.41009 175.751 4.82522 175.604 5.26387L175.531 5.77564ZM185.934 51.7614C186.593 51.3228 187.106 50.811 187.619 50.153C191.868 45.3278 193.773 38.3824 191.722 32.0219C190.183 27.0505 187.106 23.1026 182.637 20.7631C181.685 20.2513 178.828 18.8622 177.656 18.9353L180 21.7135C185.275 28.1471 187.619 35.9698 186.667 44.5236C186.374 46.8631 186.74 46.0589 186.154 49.495L185.788 51.3959C185.861 51.7614 185.861 51.5421 185.934 51.7614ZM137.289 92.3371C143.004 95.4077 151.355 93.7262 156.996 91.3136C161.538 89.3397 164.396 87.2195 168.205 84.6607C171.941 82.1018 173.993 80.0548 178.755 77.3497C180.147 76.5455 181.026 75.8875 182.564 75.1564C186.667 73.2556 191.062 71.1354 195.751 70.4774L201.172 69.8926C202.418 69.6732 203.956 67.9917 203.004 66.6026C202.271 65.506 199.341 66.164 198.169 66.3833C193.48 67.1144 188.791 68.6497 184.542 70.6968C180.806 72.5245 176.923 75.0833 173.553 77.569C165.788 83.3447 157.436 91.8254 147.546 93.2144C145.495 93.5069 143.883 93.5069 141.905 93.2876C140.879 93.0682 137.729 92.1909 137.289 92.3371ZM135.238 90.5825C135.678 90.6556 137.363 91.8985 140.147 92.1178C142.271 92.3371 144.396 92.1909 146.227 91.7523C152.015 90.4363 158.169 86.3422 162.784 82.5405L169.817 76.6917C170.916 75.7413 172.088 74.9371 173.48 73.9136C174.725 72.9632 175.897 72.0858 177.216 71.2085C184.469 66.5295 190.989 63.1665 199.78 61.5581C200.659 61.4119 201.978 61.4119 202.491 60.9001C203.004 60.3152 202.711 58.7799 202.418 58.1951C201.758 56.806 198.535 57.9757 197.363 58.2682C193.993 59.2186 190.916 60.169 187.839 61.6312L182.564 64.4825C182.198 64.7018 181.832 64.9211 181.538 65.0673C179.634 66.2371 177.582 67.5531 175.824 68.9421C172.234 71.6472 170.256 73.2556 166.96 76.2531C161.026 81.6632 154.432 88.6817 146.374 91.0212C140.073 92.8489 136.777 90.5825 135.238 90.5825ZM134.579 89.0472C135.458 90.0707 137.875 90.8018 139.707 90.8749C141.538 91.0212 143.956 90.4363 145.495 89.8514C149.084 88.5354 151.355 87.1464 154.359 84.9531C157.436 82.7598 159.048 81.2976 161.905 78.8119L167.179 73.7674C171.795 69.3077 178.755 63.7514 184.469 60.3152C185.861 59.511 187.253 58.6337 188.864 57.7564C190.476 56.8791 191.868 56.2942 193.48 55.5631C201.099 52.2732 202.198 53.8816 200.952 50.5186C200.22 48.4715 198.095 49.7144 196.264 50.4455C189.011 53.1505 180.806 58.2682 175.018 63.3858C171.282 66.6757 167.912 69.6732 164.542 73.4018C164.249 73.7674 164.029 73.9867 163.736 74.3522C163.443 74.7178 163.223 74.864 162.93 75.1564C157.363 80.859 148.938 90.0707 140.366 90.217C139.267 90.217 138.022 90.1439 137.07 89.8514C136.044 89.7052 135.531 89.1934 134.579 89.0472ZM166.52 19.0084C166.813 19.3009 166.96 19.3009 167.326 19.5933C168.352 20.3975 170.476 22.5908 171.355 23.5412C173.773 26.3194 175.971 29.9017 177.143 33.411C178.681 37.9438 179.56 45.3278 178.535 50.153L177.509 55.5631C179.048 55.2707 181.832 50.2261 182.418 48.9102C186.813 38.3824 182.784 26.1732 172.821 20.9093C172.601 20.8362 172.381 20.69 172.161 20.5437C171.355 20.1782 168.132 18.9353 167.253 18.8622C166.447 18.7891 166.52 19.0084 166.52 19.0084ZM156.85 19.0084L158.608 20.69C167.619 29.4631 170.476 36.7009 170.33 48.9102C170.33 50.5917 169.963 54.174 169.597 55.5631C169.231 57.2446 169.231 58.1951 168.718 60.0959C168.571 60.6077 168.352 61.0463 168.278 61.4119C169.304 61.2657 171.722 57.6833 172.234 56.806C174.945 52.2001 175.824 48.5446 175.824 43.0614C175.751 35.8236 173.114 29.6093 167.985 24.8572C166.593 23.5412 164.689 22.2252 163.004 21.2748C162.051 20.7631 157.509 18.716 156.85 19.0084ZM207.326 67.4068C207.326 70.9892 207.033 73.8405 206.154 76.9842C205.934 77.7153 205.861 78.227 205.568 78.9581C203.443 85.0262 199.853 89.7783 194.066 92.5565C192.967 93.0682 192.601 92.922 192.381 93.5069C193.114 93.7262 195.824 92.922 196.63 92.6296C200.073 91.3867 203.59 88.4623 206.007 85.6111C211.795 78.7388 213.26 68.5035 211.136 59.5841C210.916 58.7068 210.769 58.2682 210.623 57.464L208.498 51.3228C207.106 47.5942 203.077 40.9412 207.473 39.9908C209.89 39.4791 210.476 41.0144 211.941 41.2337C211.648 39.9177 210.183 38.8942 208.864 38.6017C207.179 38.2362 205.348 38.6749 204.249 39.6253C201.026 42.4765 203.297 48.6908 204.469 52.9312C205.861 57.9757 207.326 61.1925 207.326 67.4068ZM158.462 69.8195C160.293 68.869 163.443 63.4589 164.542 61.0463C166.3 57.0984 167.326 53.0043 167.326 48.5446C167.326 41.1606 165.421 35.1656 161.172 29.5362C160.366 28.4395 159.707 27.8547 158.755 26.8311C156.996 24.9303 155.311 23.7605 153.114 22.3715C150.623 20.8362 148.864 20.2513 146.227 19.1547C146.3 19.7395 145.934 19.2278 147.179 20.3244C153.26 25.6614 157.582 31.8026 160 39.8446C164.542 54.9782 158.388 68.2841 158.462 69.8195ZM149.304 77.4959C150.037 77.3497 149.963 77.1304 150.769 76.1069C152.381 74.1329 153.626 72.5245 154.799 70.2581C156.044 67.9917 157.07 65.7253 157.875 63.2396C160.293 55.49 159.927 46.2782 156.777 38.8942C156.117 37.3589 155.531 36.1891 154.872 35.0194C152.381 30.5597 150.476 28.8051 147.106 25.7345C144.762 23.5412 139.121 20.2513 136.19 19.374C136.264 19.9589 137.582 20.69 138.608 21.7866C143.004 26.1732 144.103 27.3429 147.619 32.8261C149.377 35.5312 151.282 40.137 152.161 43.2807C152.674 44.9623 153.407 49.9337 153.553 51.9077C153.7 54.7589 153.919 58.6337 153.333 61.4119C152.747 64.3362 152.601 66.8951 151.722 69.8926L149.89 75.522C149.89 75.9606 149.451 76.9842 149.304 77.4959ZM270.256 77.4959V38.09H281.319C285.861 38.09 289.304 39.2597 291.795 41.3799C294.212 43.5732 295.458 46.5707 295.458 50.3724C295.458 53.9547 294.286 56.8791 291.868 59.1455C289.451 61.4119 285.934 62.5816 281.319 62.5816H277.582V77.4959H270.256ZM230.183 75.8144L247.839 36.8471V36.4085L247.912 36.1891L247.985 36.4085L248.059 36.1891L248.132 36.4085V36.8471L265.788 75.8144L260.147 79.9085L255.751 69.527H248.205H247.839H240.293L235.897 79.9085L230.183 75.8144ZM247.985 50.0799L242.784 63.1665H247.766H248.132H253.114L247.985 50.0799ZM294.725 72.1589H300.22V38.09H318.974V44.816H307.179V72.1589H312.234V78.1539H294.725V72.1589ZM339.267 37.7975C345.128 37.7975 350.037 39.7715 353.993 43.7925C357.949 47.8135 360 52.6387 360 58.3413C360 64.0438 358.022 68.869 353.993 72.8169C349.963 76.7648 345.055 78.7388 339.267 78.7388C333.407 78.7388 328.498 76.7648 324.469 72.8169C320.44 68.869 318.462 64.0438 318.535 58.3413C318.535 52.6387 320.513 47.8135 324.469 43.7925C328.498 39.7715 333.407 37.7975 339.267 37.7975ZM339.194 71.6472C343.004 71.6472 346.227 70.3312 348.791 67.6993C351.355 65.0673 352.674 61.9236 352.674 58.1951C352.674 54.5396 351.355 51.3959 348.791 48.7639C346.227 46.132 343.004 44.8892 339.194 44.8892C335.385 44.8892 332.161 46.2051 329.597 48.7639C327.033 51.3959 325.714 54.4665 325.714 58.1951C325.714 61.9236 327.033 65.1404 329.597 67.7724C332.234 70.3312 335.458 71.6472 339.194 71.6472ZM277.582 45.1816V55.49H281.905C283.883 55.49 285.421 55.0514 286.52 54.2472C287.619 53.3698 288.132 52.127 288.205 50.3724C288.205 48.6908 287.692 47.3749 286.593 46.4976C285.495 45.6202 283.956 45.1816 281.978 45.1816H277.582ZM97.2894 77.0573V37.3589H118.681V44.5236H104.689V53.7354H118.095V60.9001H104.689V70.0388H118.681V77.2035H97.2894V77.0573ZM72.7473 77.7153V68.5035C52.8938 68.3573 51.9414 42.2572 72.7473 41.9648V37.5051H79.1941V41.9648C100.073 42.2572 98.9744 68.3573 79.1941 68.5035V77.7884H72.7473V77.7153ZM72.7473 62.0699V48.3253C64.0293 47.7404 61.1722 61.5581 72.7473 62.0699ZM79.1941 48.3253V62.0699C91.2088 62.143 88.1319 48.106 79.1941 48.3253ZM0 76.4724V37.8707H7.17949V54.6127L19.1941 37.8707H27.7656L13.1868 56.8791L27.5458 76.1069L21.978 80.4203L7.17949 59.5841V76.4724H0ZM46.0806 50.3724L40.8791 63.4589H45.8608H46.2271H51.2821L46.0806 50.3724Z" fill="#E9D2A6"/>
</svg>
