<svg width="58" height="58" viewBox="0 0 58 58" fill="none" xmlns="http://www.w3.org/2000/svg">
<path d="M35.7912 10.4639C33.6946 10.4639 31.9888 12.1629 31.9888 14.2515C31.9889 16.34 33.6946 18.0391 35.7912 18.0391C37.8878 18.0391 39.5937 16.3401 39.5937 14.2515C39.5937 12.163 37.8879 10.4639 35.7912 10.4639ZM35.7912 16.2635C34.6735 16.2635 33.7642 15.361 33.7642 14.2515C33.7643 13.1421 34.6735 12.2394 35.7912 12.2394C36.9088 12.2394 37.8182 13.1421 37.8182 14.2515C37.8182 15.361 36.9089 16.2635 35.7912 16.2635Z" fill="#391E25"/>
<path d="M43.0057 2.30449L41.2516 0.559497C40.889 0.198696 40.4071 0 39.8948 0C39.3825 0 38.9006 0.198696 38.5378 0.559497L36.7839 2.30449C36.42 2.66653 36.2196 3.14832 36.2196 3.66103C36.2196 4.17352 36.42 4.65519 36.784 5.01735L38.538 6.76268C38.9009 7.12325 39.3825 7.32184 39.8949 7.32184C40.4073 7.32184 40.8891 7.12325 41.2518 6.76245L43.0058 5.01735C43.3696 4.65519 43.57 4.17352 43.57 3.66114C43.57 3.14855 43.3696 2.66699 43.0057 2.30449ZM41.7533 3.75879L39.9995 5.50367C39.964 5.5389 39.923 5.54626 39.8948 5.54626C39.8665 5.54626 39.8255 5.53878 39.79 5.50378L38.0363 3.75879C38.0022 3.72492 37.9951 3.68697 37.9951 3.66103C37.9951 3.63498 38.0023 3.59703 38.0362 3.56316L39.7899 1.81839C39.8254 1.78305 39.8665 1.77569 39.8947 1.77569C39.9229 1.77569 39.9639 1.78316 39.9995 1.81839L41.7532 3.56304C41.7873 3.59691 41.7944 3.63498 41.7944 3.66103C41.7943 3.68686 41.787 3.72503 41.7533 3.75879Z" fill="#391E25"/>
<path d="M12.5418 15.4792L11.1243 14.0693C10.7991 13.7457 10.3671 13.5675 9.9077 13.5675C9.44834 13.5675 9.01617 13.7458 8.69094 14.0692L7.27334 15.4792C6.94675 15.8041 6.76697 16.2364 6.76697 16.6966C6.76697 17.1565 6.94686 17.5887 7.27322 17.9132L8.69105 19.3238C9.01628 19.6472 9.44834 19.8253 9.9077 19.8253C10.3671 19.8253 10.7992 19.647 11.1242 19.3236L12.5416 17.9134C12.8682 17.5887 13.048 17.1564 13.0481 16.6965C13.0482 16.2365 12.8684 15.8042 12.5418 15.4792ZM9.90747 18.0298L8.56746 16.6963L9.90758 15.3632L11.2476 16.6963L9.90747 18.0298Z" fill="#391E25"/>
<path d="M49.4419 18.1394L48.0244 16.7294C47.6992 16.4057 47.2671 16.2275 46.8075 16.2275C46.3482 16.2275 45.9161 16.4058 45.5907 16.7293L44.1732 18.1394C43.8466 18.4643 43.6669 18.8965 43.6669 19.3566C43.667 19.8165 43.8468 20.2487 44.1731 20.5732L45.5911 21.9839C45.9164 22.3075 46.3485 22.4853 46.8076 22.4853C47.2671 22.4853 47.6991 22.307 48.0242 21.9836L49.4416 20.5735C49.7682 20.2487 49.948 19.8165 49.9481 19.3565C49.9482 18.8966 49.7684 18.4644 49.4419 18.1394ZM46.8077 20.6899L45.4677 19.3566L46.8077 18.0234L48.1477 19.3566L46.8077 20.6899Z" fill="#391E25"/>
<path d="M19.5727 29.7364L19.4506 29.6729C19.0153 29.4468 18.4796 29.6164 18.2534 30.0514C18.0275 30.4864 18.1969 31.0223 18.6319 31.2484L18.754 31.3119C18.8849 31.3799 19.0249 31.4121 19.1626 31.4121C19.4835 31.4121 19.7931 31.2377 19.9512 30.9334C20.1773 30.4984 20.0078 29.9625 19.5727 29.7364Z" fill="black"/>
<path d="M28.6256 9.88343C28.6256 8.02878 27.9015 6.28708 26.587 4.97913C25.7034 4.09973 24.2654 4.09973 23.3814 4.97913L20.0028 8.34065C19.6553 8.68638 19.6539 9.24849 19.9997 9.59603C20.3454 9.94358 20.9075 9.94483 21.2552 9.59909L24.6335 6.23769C24.8268 6.04534 25.1413 6.04534 25.3345 6.23769C25.4939 6.39628 25.6404 6.56428 25.776 6.73885C25.2308 6.8843 24.8605 7.52559 25.0973 8.05552C25.2283 8.34858 25.516 8.55203 25.8359 8.57786C26.1354 8.60199 26.3837 8.47183 26.5904 8.26611C26.7602 8.78097 26.8499 9.32495 26.8499 9.8832C26.8499 11.2617 26.3118 12.5564 25.3346 13.5286C23.923 14.9331 21.8944 15.3566 20.1092 14.8022C20.4612 14.3592 20.283 13.7839 19.8695 13.46C19.3723 13.0704 18.6124 13.3173 18.4562 13.9361C18.2959 13.8106 18.1407 13.6756 17.9929 13.5287C17.9008 13.4371 17.85 13.3154 17.85 13.1864C17.8501 13.0573 17.9008 12.936 17.9929 12.8444L18.7693 12.072C19.1169 11.7262 19.1183 11.1641 18.7725 10.8164C18.4266 10.4689 17.8646 10.4676 17.517 10.8132L16.7405 11.5856C16.3111 12.0128 16.0745 12.5812 16.0743 13.186C16.0742 13.7911 16.3109 14.3596 16.7405 14.787C18.0975 16.1377 19.8795 16.8127 21.6621 16.8131C21.2169 16.8131 20.7733 16.8132 21.6638 16.8131C22.5537 16.813 22.1105 16.813 21.6656 16.8131C23.4477 16.8124 25.2302 16.1374 26.5869 14.7876C27.9016 13.4798 28.6257 11.7381 28.6256 9.88343Z" fill="#391E25"/>
<path d="M22.7739 12.2615L22.6762 12.1644C22.3285 11.8189 21.7664 11.8206 21.4208 12.1681C21.0752 12.5159 21.0769 13.0779 21.4245 13.4236L21.5221 13.5207C21.6953 13.6928 21.9217 13.7788 22.1479 13.7788C22.376 13.7788 22.6041 13.6914 22.7775 13.5169C23.1232 13.1691 23.1215 12.6071 22.7739 12.2615Z" fill="#391E25"/>
<path d="M25.2161 10.0278L25.1184 9.93049C24.7711 9.5843 24.2089 9.58532 23.863 9.93275C23.5169 10.2802 23.518 10.8422 23.8653 11.1881L23.9629 11.2854C24.1361 11.4581 24.3628 11.5443 24.5895 11.5443C24.8172 11.5443 25.045 11.4573 25.2184 11.2832C25.5644 10.9359 25.5633 10.3738 25.2161 10.0278Z" fill="#391E25"/>
<path d="M56.3494 32.9132C57.4127 31.0168 57.0985 28.6245 55.5259 27.0599C54.5962 26.135 53.3607 25.6258 52.0465 25.6258C51.1997 25.6258 50.3803 25.8382 49.6508 26.2435C48.912 25.9863 48.2008 25.8563 47.5311 25.8563C47.2952 25.8563 47.0675 25.8739 46.8481 25.9066C46.5521 24.8069 45.8851 23.8224 44.939 23.1425C44.5407 22.8563 43.986 22.9472 43.7 23.3454C43.4137 23.7435 43.5047 24.2982 43.9028 24.5844C44.5765 25.0686 45.032 25.7906 45.1874 26.5878C45.0803 26.6702 44.9779 26.7584 44.8818 26.8541C44.3466 27.3866 44.0239 28.0895 43.9188 28.9019C43.4007 28.6738 42.8086 28.556 42.1606 28.556C41.9581 28.556 41.7512 28.5674 41.5404 28.5901C41.6882 27.2019 41.3368 26.0028 40.5146 25.1847C40.3384 25.0095 40.1441 24.8553 39.9339 24.7227C40.4961 24.2569 41.218 23.9757 42.0055 23.9757C42.4958 23.9757 42.8933 23.5783 42.8933 23.0879C42.8933 22.5975 42.4958 22.2001 42.0055 22.2001C40.393 22.2001 38.9559 22.9617 38.0375 24.1425C37.9309 24.1356 37.8231 24.1313 37.7132 24.1313C37.5107 24.1313 37.3039 24.1427 37.0932 24.1654C37.2412 22.777 36.8898 21.578 36.0673 20.76C35.3747 20.0711 34.4063 19.7069 33.2664 19.7069C32.5456 19.7069 31.7788 19.8488 30.9817 20.1292C30.2008 19.6894 29.3219 19.459 28.413 19.459C27.0182 19.459 25.7065 19.9997 24.7199 20.9813C24.0695 21.6283 23.6229 22.4092 23.3856 23.2399L19.2036 19.0795C18.7431 18.6213 18.1311 18.3689 17.4804 18.3689C16.8296 18.3689 16.2178 18.6213 15.7574 19.0793C14.4431 20.3868 13.6643 22.0862 13.5248 23.9153C12.9624 23.5965 12.2913 23.4307 11.5429 23.4307C10.862 23.4307 10.1388 23.5644 9.38785 23.8288C8.64687 23.4121 7.81437 23.1938 6.95354 23.1938C5.61999 23.1938 4.36665 23.7156 3.42415 24.6629C1.83152 26.2637 1.51547 28.7131 2.59753 30.651C1.91071 32.629 2.13092 34.4231 3.21367 35.5117C3.32525 35.6238 3.44499 35.7263 3.57107 35.8205L2.79895 36.5885C2.38535 37 2.15766 37.5475 2.15766 38.1299C2.15766 38.1794 2.15958 38.2284 2.16287 38.2773C1.94469 38.4031 1.74599 38.5643 1.57777 38.7591C1.14481 39.2603 0.954043 39.9225 1.05418 40.5758C1.65322 44.4921 3.64799 48.0787 6.67102 50.6744C8.49553 52.241 10.6265 53.3831 12.9081 54.0481C12.7939 54.3039 12.729 54.5865 12.729 54.8843V55.9395C12.729 57.0756 13.6531 57.9999 14.7889 57.9999H42.5714C43.7073 57.9999 44.6313 57.0755 44.6313 55.9395V54.8843C44.6313 54.5865 44.5664 54.304 44.4523 54.0481C45.5246 53.7362 46.566 53.319 47.5555 52.8002C47.9899 52.5727 48.1573 52.036 47.9297 51.6017C47.7021 51.1675 47.1654 50.9999 46.7312 51.2277C45.1522 52.0553 43.4262 52.5952 41.6573 52.8239H15.6894C12.793 52.4486 10.0548 51.2399 7.8274 49.3272C7.24728 48.829 6.70976 48.2898 6.21755 47.7161H12.3973C12.8865 47.7161 13.2831 47.3196 13.2831 46.8302C13.2831 46.3408 12.8865 45.9442 12.3973 45.9442H4.91244C4.44323 45.1978 4.0413 44.4115 3.71143 43.5941H15.431C15.9203 43.5941 16.3169 43.1974 16.3169 42.7082C16.3169 42.2188 15.9203 41.8222 15.431 41.8222H3.12395C2.99322 41.3246 2.88742 40.8192 2.80914 40.3071C2.78784 40.1681 2.82874 40.0271 2.92152 39.9197C3.01531 39.811 3.15216 39.7487 3.29693 39.7487H54.0633C54.2082 39.7487 54.3451 39.811 54.4388 39.9197C54.5314 40.027 54.5723 40.1682 54.5511 40.3074C54.0484 43.5935 52.4221 46.6577 49.9717 48.9353C49.6126 49.269 49.5921 49.8308 49.9258 50.19C50.2596 50.5488 50.8213 50.5696 51.1806 50.2358C53.923 47.6868 55.7434 44.2562 56.3062 40.5761C56.4062 39.9226 56.2155 39.2606 55.7827 38.7594C55.5725 38.516 55.3154 38.3242 55.0311 38.1904C55.289 38.0462 55.5241 37.8702 55.7327 37.6627C56.8029 36.5978 57.0234 34.8455 56.3494 32.9132ZM14.5043 54.8845C14.5043 54.7274 14.6319 54.5997 14.7888 54.5997H42.5713C42.7282 54.5997 42.8557 54.7274 42.8557 54.8845V55.9397C42.8557 56.0968 42.7282 56.2245 42.5713 56.2245H14.7888C14.632 56.2245 14.5043 56.0968 14.5043 55.9397V54.8845ZM23.824 27.3293C23.6771 27.7649 23.5732 28.1911 23.512 28.6031C23.2683 28.6133 23.0315 28.6606 22.8082 28.7438C22.7073 28.3948 22.5785 28.0538 22.425 27.7239C22.916 27.6772 23.3883 27.5428 23.824 27.3293ZM20.0961 22.4721L23.2571 25.6168C22.8942 25.8455 22.4728 25.9678 22.0323 25.9678C20.8489 25.9678 19.74 24.8779 19.74 23.6918C19.7402 23.253 19.8643 22.8332 20.0961 22.4721ZM17.0098 20.3378C17.1353 20.213 17.3024 20.1442 17.4804 20.1442C17.6585 20.1442 17.8255 20.213 17.9512 20.338L18.8222 21.2044C18.2669 21.9127 17.9647 22.7787 17.9647 23.6917C17.9647 23.8804 17.9779 24.067 18.0035 24.2507C17.2709 24.344 16.6281 24.7884 16.284 25.4582L15.6745 26.6441C15.4133 25.9729 15.2755 25.2526 15.2755 24.5103C15.2753 22.9322 15.8912 21.4506 17.0098 20.3378ZM3.96552 37.9734V37.9733C3.9833 37.9317 4.00992 37.8883 4.05105 37.8474L6.25131 35.6585C6.35576 35.5547 6.47799 35.5392 6.54176 35.5392C6.60554 35.5392 6.72811 35.5547 6.83256 35.6586L9.03282 37.8475C9.07395 37.8883 9.10068 37.9318 9.11835 37.9734H3.96552ZM8.5729 34.8852L8.08466 34.3996C7.6722 33.9894 7.12426 33.7636 6.54176 33.7636C5.95927 33.7636 5.41133 33.9895 4.9991 34.3998L4.86021 34.5379C4.71431 34.4635 4.58381 34.3717 4.47234 34.2595C3.83117 33.6148 3.80568 32.3555 4.40414 30.891C4.51754 30.6134 4.48333 30.2972 4.31273 30.0505C3.42358 28.7635 3.57911 27.0242 4.68259 25.9148C5.28932 25.305 6.09578 24.969 6.95332 24.969C7.6125 24.969 8.24541 25.1676 8.78338 25.5435C9.03147 25.7168 9.35081 25.7517 9.6305 25.636C10.3119 25.3546 10.9731 25.2059 11.5427 25.2059C12.1612 25.2059 12.6414 25.3732 12.9697 25.7034C13.5301 26.2669 13.6227 27.309 13.2236 28.5628C13.1227 28.8795 13.2074 29.226 13.4426 29.4606C13.6174 29.6349 13.8537 29.7252 14.0934 29.719L12.8008 32.2342C12.6197 32.2415 12.442 32.2608 12.2662 32.2867L7.84156 27.8387C7.49582 27.4911 6.93383 27.4898 6.58606 27.8354C6.2384 28.1812 6.23704 28.7432 6.58277 29.0908L10.4197 32.9479C9.64273 33.4155 9.00099 34.0849 8.5729 34.8852ZM15.3603 35.8666C14.9307 36.2939 14.6941 36.8624 14.6941 37.4674C14.6941 37.6399 14.7151 37.8091 14.7529 37.9732H10.9188C10.8817 37.4499 10.6612 36.9629 10.2852 36.5886L9.92197 36.2273C10.3461 34.939 11.5666 34.0057 13.003 34.0057C14.1494 34.0057 15.1561 34.6016 15.7323 35.4964L15.3603 35.8666ZM14.655 32.5113L17.8629 26.2699C17.9839 26.0348 18.28 25.9402 18.5149 26.0624C18.7195 26.1688 18.9133 26.2878 19.0974 26.4169C18.63 26.713 18.4648 27.4224 18.8292 27.858C19.2598 28.3727 20.0534 28.2162 20.3296 27.6355C20.8305 28.3337 21.1501 29.1459 21.2646 29.992L18.2926 32.9489C18.0735 32.5787 17.5523 32.3606 17.1397 32.491C16.595 32.6632 16.3521 33.3274 16.6577 33.8117C16.1103 33.2305 15.4255 32.7801 14.655 32.5113ZM21.1478 37.9734C22.0591 37.5414 21.5909 36.1859 20.6679 36.1883C19.6181 36.1909 19.5485 37.5758 20.3874 37.9733H18.7204C18.6719 37.9136 18.6173 37.8583 18.5616 37.8054C18.2138 37.4599 17.6517 37.4616 17.3062 37.8091C17.1874 37.9288 17.2171 37.9429 17.0788 37.9732C17.015 37.9871 16.8577 37.9945 16.795 37.9732C16.4614 37.86 16.3794 37.3574 16.6128 37.1251L23.2534 30.5184C23.444 30.3287 23.7637 30.3286 23.9544 30.5184C24.1138 30.677 24.2603 30.8449 24.3958 31.0195C24.03 31.117 23.6967 31.4826 23.6475 31.8585C23.5852 32.3355 23.9274 32.7861 24.405 32.8522C24.2153 33.4273 24.094 34.027 24.0455 34.6418C23.737 33.767 22.3329 33.7123 22.2293 34.7518C22.1325 35.722 23.586 36.2731 24.0195 35.2979C24.024 36.2268 24.1928 37.1296 24.5119 37.9733H21.1478V37.9734ZM26.4564 37.9733C26.0246 37.1454 25.7942 36.2208 25.7942 35.2597C25.7942 33.6819 26.4101 32.2 27.5285 31.0872C27.654 30.9624 27.8211 30.8938 27.9993 30.8938C28.1774 30.8938 28.3445 30.9624 28.4701 31.0873L29.3411 31.9539C28.7857 32.6621 28.4837 33.5282 28.4837 34.4412C28.4837 35.5241 28.9075 36.5422 29.6768 37.3076C29.9425 37.5719 30.239 37.7942 30.5575 37.9732H26.4564V37.9733ZM32.5513 36.7171C31.938 36.7171 31.362 36.4798 30.9289 36.049C30.4969 35.6192 30.2591 35.0481 30.2591 34.441C30.2591 34.0024 30.3832 33.5825 30.615 33.2211L33.776 36.3659C33.4131 36.5948 32.9919 36.7171 32.5513 36.7171ZM34.5453 37.9733C34.7217 37.8742 34.891 37.7616 35.0522 37.6358L35.3915 37.9733H34.5453ZM33.0463 33.1356C33.3725 32.0441 34.391 31.2455 35.5943 31.2455C36.726 31.2455 37.6941 31.9521 38.0767 32.9441C38.008 32.9992 37.9412 33.0574 37.8779 33.1204L35.4547 35.5313L33.0463 33.1356ZM42.7064 37.9243L42.6573 37.9733H37.6819C37.5625 37.707 37.3948 37.4617 37.1812 37.2492L36.7132 36.7836L39.1299 34.3791C39.3863 34.124 39.816 34.1239 40.0726 34.3789L42.7064 36.9994C42.9598 37.2514 42.9598 37.6722 42.7064 37.9243ZM43.4224 35.2071L41.3248 33.1202C40.9052 32.7029 40.3593 32.4586 39.7737 32.4181C39.1651 30.7028 37.5224 29.4699 35.5944 29.4699C35.2577 29.4699 34.93 29.5083 34.6147 29.5793L29.313 24.3047C28.9654 23.9589 28.4034 23.9604 28.0577 24.3078C27.7119 24.6555 27.7133 25.2176 28.0608 25.5632L32.9021 30.3798C32.4064 30.7586 31.9938 31.2397 31.6947 31.7905L31.2215 31.3197C31.2213 31.3195 31.221 31.3192 31.2208 31.319L29.7223 29.8284C29.2618 29.3702 28.6499 29.1181 27.9993 29.1181C27.3486 29.1181 26.7367 29.3703 26.2763 29.8284C26.169 29.935 26.0665 30.0452 25.9664 30.157C25.7439 29.8449 25.4948 29.5483 25.2181 29.2718C25.2499 28.7277 25.3987 28.1137 25.6684 27.4606C25.784 27.1811 25.7491 26.8617 25.5759 26.6137C24.6258 25.2528 24.7924 23.4132 25.972 22.2397C26.6237 21.5912 27.4906 21.2342 28.4129 21.2342C29.122 21.2342 29.8025 21.4455 30.3812 21.8453C30.628 22.0158 30.9442 22.0503 31.2217 21.9367C31.9494 21.6392 32.6564 21.4821 33.2666 21.4821C33.9364 21.4821 34.4575 21.6624 34.8152 22.0185C35.4182 22.6183 35.5197 23.722 35.0937 25.047C34.9918 25.3633 35.0754 25.7101 35.31 25.9455C35.5447 26.1808 35.8911 26.2655 36.2079 26.1648C36.7463 25.9934 37.2528 25.9065 37.7133 25.9065C38.3835 25.9065 38.9048 26.087 39.2625 26.4429C39.8654 27.0429 39.9669 28.1467 39.541 29.4716C39.4393 29.7881 39.5228 30.1349 39.7575 30.3702C39.992 30.6054 40.3386 30.6905 40.6553 30.5894C41.1939 30.4181 41.7004 30.3311 42.1609 30.3311C42.8309 30.3311 43.3521 30.5117 43.7101 30.8678C44.0669 31.2228 44.248 31.7394 44.248 32.4032C44.2478 33.2563 43.951 34.2307 43.4224 35.2071ZM49.6997 37.9733H45.9079C45.8235 37.7528 45.7769 37.514 45.7769 37.2645C45.7769 36.155 46.6862 35.2524 47.8039 35.2524C48.9215 35.2524 49.8308 36.155 49.8308 37.2645C49.8306 37.5139 49.784 37.7527 49.6997 37.9733ZM54.6351 32.3086C54.4619 32.5567 54.427 32.8758 54.5424 33.1554C55.1263 34.57 55.1032 35.7842 54.4802 36.4038C54.1593 36.7229 53.6893 36.8848 53.0829 36.8848C52.6609 36.8848 52.1961 36.8049 51.7013 36.6473C51.6511 36.6312 51.6001 36.6215 51.5489 36.6148C51.3587 35.523 50.6984 34.59 49.7831 34.0316L52.4175 31.4107C52.765 31.0649 52.7665 30.5028 52.4206 30.1553C52.0747 29.8077 51.5127 29.8062 51.1653 30.1522L47.8232 33.4771C47.8165 33.4771 47.8101 33.4767 47.8035 33.4767C47.0661 33.4767 46.3775 33.6875 45.794 34.051C45.944 33.4871 46.0232 32.9335 46.0231 32.4032C46.0231 32.0328 45.9413 31.0269 45.8901 30.8675C45.501 29.6577 45.5899 28.6537 46.1338 28.1127C46.4546 27.7936 46.9246 27.6317 47.5308 27.6317C48.0903 27.6317 48.7401 27.7765 49.4099 28.05C49.6874 28.1637 50.0036 28.1291 50.2504 27.9586C50.7781 27.5941 51.3992 27.4013 52.0462 27.4013C52.8878 27.4013 53.6787 27.7271 54.2734 28.3185C55.3497 29.3891 55.5017 31.0672 54.6351 32.3086Z" fill="#391E25"/>
<path d="M48.9781 47.6206C48.6594 47.2493 48.1002 47.2069 47.7289 47.5255C47.1663 48.0088 46.5551 48.4432 45.9126 48.8167C45.4897 49.0624 45.346 49.6048 45.5917 50.0277C45.7561 50.3107 46.0532 50.4687 46.3585 50.4687C46.5096 50.4687 46.6627 50.43 46.8029 50.3485C47.5386 49.9209 48.2386 49.4233 48.8832 48.8698C49.2543 48.5511 49.2969 47.9918 48.9781 47.6206Z" fill="#391E25"/>
<path d="M52.5959 41.034C52.1257 40.9003 51.6354 41.1729 51.5011 41.6432C51.0769 43.1323 50.379 44.5109 49.4265 45.7404C49.1269 46.1274 49.1977 46.6837 49.5845 46.9833C49.7458 47.1084 49.9368 47.1688 50.1264 47.1688C50.3909 47.1689 50.6529 47.0507 50.8273 46.8255C51.9188 45.4163 52.7187 43.8362 53.2052 42.129C53.3392 41.6584 53.0666 41.1681 52.5959 41.034Z" fill="#391E25"/>
</svg>
