<svg width="58" height="58" viewBox="0 0 58 58" fill="none" xmlns="http://www.w3.org/2000/svg">
<g clip-path="url(#clip0)">
<path d="M53.9773 36.9064C53.9296 36.9064 53.8829 36.9112 53.8374 36.9188C47.2431 30.4464 38.5386 26.8838 29.2856 26.8838C19.9492 26.8838 11.1706 30.5094 4.5555 37.0928C4.40914 36.9764 4.22427 36.9064 4.02274 36.9064C1.80457 36.9064 0 38.7109 0 40.9291V41.5841C0 43.7466 1.71553 45.5153 3.85701 45.6026L4.51812 47.4192C4.67988 47.8636 5.17085 48.0928 5.61604 47.9311C6.06056 47.7693 6.28973 47.2777 6.12796 46.8332L5.68163 45.6068H52.3061L49.3691 53.4482C49.3557 53.484 49.3447 53.5202 49.3363 53.5574C48.9947 55.049 47.6872 56.0907 46.1569 56.0907H11.8432C10.313 56.0907 9.00542 55.049 8.66365 53.5573C8.55796 53.0963 8.09827 52.8083 7.63732 52.9137C7.17627 53.0195 6.88808 53.4789 6.99377 53.9401C7.51509 56.215 9.50919 57.8037 11.8432 57.8037H46.1569C48.4709 57.8037 50.4509 56.2418 50.9926 53.998L54.1371 45.6029C56.2814 45.5186 58.0001 43.7488 58.0001 41.5842V40.9292C58.0001 38.7109 56.1955 36.9064 53.9773 36.9064ZM56.2871 41.5841C56.287 42.8575 55.2509 43.8938 53.9773 43.8938H53.5827C53.5692 43.8931 53.5561 43.8914 53.5425 43.8914H4.4574C4.44381 43.8914 4.43044 43.8932 4.41696 43.8938H4.02262C2.74923 43.8938 1.71304 42.8577 1.71304 41.5841V40.9291C1.71304 39.6557 2.749 38.6194 4.02262 38.6194C4.2288 38.6194 4.41775 38.5466 4.5657 38.4252C4.71455 38.5444 4.9009 38.615 5.09982 38.615H11.3687C11.8419 38.615 12.2252 38.2315 12.2252 37.7585C12.2252 37.2854 11.8418 36.9019 11.3687 36.9019H7.26338C19.8152 25.8493 38.7567 25.8494 51.3079 36.9019H19.4311C18.9579 36.9019 18.5745 37.2854 18.5745 37.7585C18.5745 38.2315 18.9579 38.615 19.4311 38.615H53.4715C53.556 38.615 53.6383 38.6022 53.7167 38.5787C53.799 38.605 53.8865 38.6194 53.9775 38.6194C55.2509 38.6194 56.2872 39.6555 56.2872 40.9291V41.5841H56.2871Z" fill="#391E25"/>
<path d="M29.4327 30.4802C28.9595 30.4802 28.5762 30.8637 28.5762 31.3367V34.0535C28.5762 34.5266 28.9596 34.9102 29.4327 34.9102C29.9058 34.9102 30.2892 34.5268 30.2892 34.0537V31.3369C30.2892 30.8636 29.9058 30.4802 29.4327 30.4802Z" fill="#391E25"/>
<path d="M24.2659 30.6383C23.8385 30.4354 23.3276 30.6181 23.1251 31.0455L21.9094 33.6114C21.7067 34.039 21.8892 34.5495 22.3166 34.7522C22.435 34.8084 22.5599 34.835 22.6828 34.835C23.0035 34.835 23.311 34.654 23.4574 34.3449L24.6731 31.779C24.8758 31.3515 24.6934 30.8408 24.2659 30.6383Z" fill="#391E25"/>
<path d="M36.7195 33.6112L35.5036 31.0453C35.3011 30.6178 34.7903 30.4356 34.3628 30.6381C33.9352 30.8407 33.7529 31.3515 33.9556 31.779L35.1715 34.3449C35.3179 34.654 35.6255 34.8349 35.9461 34.8349C36.069 34.8349 36.194 34.8083 36.3123 34.7521C36.7399 34.5496 36.9222 34.0387 36.7195 33.6112Z" fill="#391E25"/>
<path d="M38.2302 9.42832C37.1708 3.93168 28.553 0.405907 28.1866 0.258414C27.7778 0.0938164 27.3108 0.266344 27.1074 0.657052C26.9037 1.04776 27.0296 1.52932 27.3985 1.77027C27.4357 1.79451 31.1149 4.23448 31.5956 7.70565C31.8385 9.46038 31.203 11.2203 29.7069 12.937C29.396 13.2936 29.4331 13.8345 29.7898 14.1455C30.1463 14.4563 30.6873 14.4192 30.9983 14.0626C32.8347 11.956 33.6066 9.73815 33.2927 7.47059C33.1348 6.32985 32.7152 5.29446 32.1829 4.3882C34.1728 5.76389 36.1381 7.61922 36.5486 9.75446C36.874 11.4462 36.1264 13.1773 34.3267 14.8993C33.6047 15.5903 32.9348 16.1833 32.3439 16.7067C30.3357 18.4851 28.9149 19.7432 28.4538 22.2187C28.1904 21.2926 28.0785 20.1383 28.3824 18.803C28.4874 18.3418 28.1985 17.8826 27.7372 17.7776C27.2754 17.6729 26.8169 17.9616 26.7118 18.4228C25.6882 22.922 28.4673 25.8096 28.586 25.9304C28.7504 26.0977 28.9718 26.1863 29.1966 26.1863C29.3164 26.1863 29.4369 26.1612 29.5505 26.1096C29.8777 25.961 30.0775 25.6238 30.0506 25.2653C29.7518 21.2899 30.843 20.3235 33.4794 17.9891C34.0819 17.4554 34.7649 16.8506 35.511 16.1369C37.7587 13.9861 38.6734 11.7288 38.2302 9.42832Z" fill="#391E25"/>
</g>
<defs>
<clipPath id="clip0">
<rect width="58" height="58" fill="white"/>
</clipPath>
</defs>
</svg>
