<svg width="58" height="58" viewBox="0 0 58 58" fill="none" xmlns="http://www.w3.org/2000/svg">
<path d="M17.8424 4.75342C17.0698 4.75342 16.4434 5.37975 16.4434 6.15244V14.6868C16.4434 15.4595 17.0699 16.0859 17.8424 16.0859C18.6149 16.0859 19.2414 15.4595 19.2414 14.6868V6.15244C19.2414 5.37975 18.615 4.75342 17.8424 4.75342Z" fill="#391E25"/>
<path d="M31.6717 1.22571C30.8992 1.22571 30.2727 1.85204 30.2727 2.62473V11.1591C30.2727 11.9318 30.8993 12.5582 31.6717 12.5582C32.4444 12.5582 33.0708 11.9318 33.0708 11.1591V2.62485C33.0708 1.85215 32.4444 1.22571 31.6717 1.22571Z" fill="#391E25"/>
<path d="M39.598 5.49292C38.8254 5.49292 38.199 6.11925 38.199 6.89195V15.4263C38.199 16.199 38.8255 16.8254 39.598 16.8254C40.3705 16.8254 40.997 16.199 40.997 15.4263V6.89195C40.997 6.11925 40.3706 5.49292 39.598 5.49292Z" fill="#391E25"/>
<path d="M54.6423 20.7888H3.35778C1.50642 20.7888 0 22.2952 0 24.1466V25.2211C0 35.6888 5.59599 45.2703 14.6595 50.431V53.4165C14.6595 55.2678 16.1659 56.7743 18.0173 56.7743H39.9827C41.8341 56.7743 43.3405 55.2678 43.3405 53.4165V50.3469C47.5544 47.9006 51.1179 44.4208 53.6864 40.2309C56.5084 35.6274 58 30.3556 58 24.9847V24.1466C58.0001 22.2952 56.4937 20.7888 54.6423 20.7888ZM40.5423 53.4165C40.5423 53.7251 40.2913 53.9761 39.9827 53.9761H18.0173C17.7086 53.9761 17.4577 53.7251 17.4577 53.4165V51.0052H40.5423V53.4165ZM51.3009 38.7684C48.8739 42.7274 45.4663 45.9827 41.4347 48.207H16.4209C9.05901 44.1715 4.14769 36.946 3.03798 28.7668H54.9253C54.4115 32.2913 53.1853 35.6945 51.3009 38.7684ZM55.202 24.9847C55.202 25.3132 55.1946 25.6412 55.1822 25.9687H2.81097C2.80394 25.72 2.79805 25.4711 2.79805 25.2212V24.1466C2.79805 23.838 3.04908 23.587 3.35766 23.587H54.6422C54.9508 23.587 55.2018 23.838 55.2018 24.1466V24.9847H55.202Z" fill="#391E25"/>
<path d="M17.6152 41.1991C14.5276 38.9922 12.1564 35.9718 10.7585 32.4647C10.4724 31.7468 9.65812 31.3966 8.94105 31.6831C8.22319 31.969 7.87326 32.783 8.15941 33.5008C9.75623 37.507 12.4635 40.9563 15.9883 43.4757C16.2348 43.6519 16.519 43.7366 16.8006 43.7366C17.237 43.7366 17.6669 43.533 17.9401 43.1509C18.3893 42.5221 18.2438 41.6483 17.6152 41.1991Z" fill="#391E25"/>
</svg>
