<svg width="58" height="58" viewBox="0 0 58 58" fill="none" xmlns="http://www.w3.org/2000/svg">
<path d="M7.38511 51.1796C7.30385 51.311 7.25754 51.4609 7.25056 51.6153C7.24358 51.7696 7.27617 51.9232 7.34523 52.0613L9.15773 55.6863C9.23301 55.837 9.34878 55.9637 9.49205 56.0522C9.63532 56.1407 9.80042 56.1876 9.96883 56.1875H48.0313C48.2005 56.1884 48.3666 56.142 48.5107 56.0534C48.6549 55.9648 48.7713 55.8377 48.847 55.6863L50.6595 52.0613C50.7287 51.9228 50.7613 51.7688 50.7541 51.6141C50.7469 51.4594 50.7001 51.3091 50.6183 51.1776C50.5365 51.0461 50.4224 50.9377 50.2868 50.8629C50.1512 50.788 49.9987 50.7492 49.8438 50.75H41.9359C42.7139 50.0704 43.337 49.2318 43.7632 48.2909C44.1893 47.3499 44.4086 46.3284 44.4062 45.2954C44.4038 44.2624 44.1798 43.2419 43.7492 42.3029C43.3187 41.364 42.6917 40.5283 41.9105 39.8523C42.463 39.8103 42.9891 39.5994 43.4177 39.2483C43.8462 38.8971 44.1564 38.4227 44.3063 37.8894C44.4562 37.356 44.4384 36.7894 44.2555 36.2665C44.0725 35.7435 43.7332 35.2895 43.2835 34.9658C44.0025 34.2131 44.4045 33.2128 44.4063 32.1719V29C44.4063 28.7596 44.3109 28.5291 44.1409 28.3592C43.9709 28.1892 43.7404 28.0938 43.5001 28.0938H40.3282C39.5211 28.0933 38.7322 28.3338 38.0626 28.7843V25.2083C38.5908 25.0215 39.0485 24.6761 39.3729 24.2193C39.6974 23.7624 39.8728 23.2165 39.8751 22.6562V19.0312C39.8751 18.3102 39.5886 17.6187 39.0788 17.1088C38.5689 16.5989 37.8774 16.3125 37.1563 16.3125C36.4353 16.3125 35.7437 16.5989 35.2339 17.1088C34.724 17.6187 34.4376 18.3102 34.4376 19.0312V22.6562C34.4399 23.2165 34.6153 23.7624 34.9397 24.2193C35.2642 24.6761 35.7218 25.0215 36.2501 25.2083V28.7843C35.5804 28.3338 34.7916 28.0933 33.9845 28.0938H30.8126C30.5722 28.0938 30.3417 28.1892 30.1718 28.3592C30.0018 28.5291 29.9063 28.7596 29.9063 29V32.1719C29.9082 33.2128 30.3102 34.2131 31.0292 34.9658C30.5795 35.2895 30.2402 35.7435 30.0572 36.2665C29.8742 36.7894 29.8565 37.356 30.0063 37.8894C30.1562 38.4227 30.4664 38.8971 30.895 39.2483C31.3236 39.5994 31.8497 39.8103 32.4021 39.8523C31.621 40.5283 30.994 41.364 30.5634 42.3029C30.1329 43.2419 29.9088 44.2624 29.9064 45.2954C29.904 46.3284 30.1233 47.3499 30.5495 48.2909C30.9756 49.2318 31.5988 50.0704 32.3768 50.75H25.6234C26.4014 50.0704 27.0245 49.2318 27.4507 48.2909C27.8768 47.3499 28.0961 46.3284 28.0937 45.2954C28.0913 44.2624 27.8673 43.2419 27.4367 42.3029C27.0062 41.364 26.3792 40.5283 25.598 39.8523C26.2768 39.7995 26.9108 39.4925 27.3732 38.9927C27.8355 38.493 28.0924 37.8371 28.0924 37.1562C28.0924 36.4754 27.8355 35.8195 27.3732 35.3198C26.9108 34.82 26.2768 34.513 25.598 34.4602C26.3813 33.7823 27.0095 32.9438 27.4401 32.0017C27.8707 31.0596 28.0936 30.0359 28.0936 29C28.0936 27.9641 27.8707 26.9404 27.4401 25.9983C27.0095 25.0562 26.3813 24.2177 25.598 23.5398C26.298 23.4855 26.9497 23.1618 27.4158 22.6368C27.882 22.1118 28.1264 21.4264 28.0975 20.7249C28.0686 20.0234 27.7687 19.3605 27.261 18.8755C26.7532 18.3906 26.0772 18.1216 25.3751 18.125H21.7501V10.7083C22.2783 10.5215 22.736 10.1761 23.0604 9.71926C23.3849 9.26245 23.5603 8.71655 23.5626 8.15625V4.53125C23.5626 3.81019 23.2761 3.11867 22.7663 2.6088C22.2564 2.09894 21.5649 1.8125 20.8438 1.8125C20.1228 1.8125 19.4312 2.09894 18.9214 2.6088C18.4115 3.11867 18.1251 3.81019 18.1251 4.53125V8.15625C18.1274 8.71655 18.3028 9.26245 18.6272 9.71926C18.9517 10.1761 19.4093 10.5215 19.9376 10.7083V18.125H16.3126C15.6105 18.1216 14.9344 18.3906 14.4267 18.8755C13.9189 19.3605 13.6191 20.0234 13.5902 20.7249C13.5613 21.4264 13.8056 22.1118 14.2718 22.6368C14.738 23.1618 15.3896 23.4855 16.0896 23.5398C15.3064 24.2177 14.6781 25.0562 14.2475 25.9983C13.8169 26.9404 13.5941 27.9641 13.5941 29C13.5941 30.0359 13.8169 31.0596 14.2475 32.0017C14.6781 32.9438 15.3064 33.7823 16.0896 34.4602C15.4108 34.513 14.7769 34.82 14.3145 35.3198C13.8521 35.8195 13.5953 36.4754 13.5953 37.1562C13.5953 37.8371 13.8521 38.493 14.3145 38.9927C14.7769 39.4925 15.4108 39.7995 16.0896 39.8523C15.3085 40.5283 14.6815 41.364 14.2509 42.3029C13.8204 43.2419 13.5963 44.2624 13.5939 45.2954C13.5915 46.3284 13.8108 47.3499 14.237 48.2909C14.6631 49.2318 15.2863 50.0704 16.0643 50.75H8.15633C8.00182 50.7499 7.84986 50.7893 7.71488 50.8645C7.5799 50.9397 7.46638 51.0482 7.38511 51.1796ZM19.9376 4.53125C19.9376 4.2909 20.0331 4.06039 20.203 3.89043C20.373 3.72048 20.6035 3.625 20.8438 3.625C21.0842 3.625 21.3147 3.72048 21.4846 3.89043C21.6546 4.06039 21.7501 4.2909 21.7501 4.53125V8.15625C21.7501 8.3966 21.6546 8.62711 21.4846 8.79707C21.3147 8.96702 21.0842 9.0625 20.8438 9.0625C20.6035 9.0625 20.373 8.96702 20.203 8.79707C20.0331 8.62711 19.9376 8.3966 19.9376 8.15625V4.53125ZM40.3282 29.9062H42.5938V32.1719C42.5938 32.7728 42.3551 33.349 41.9302 33.7739C41.5054 34.1988 40.9291 34.4375 40.3282 34.4375H38.0626V32.1719C38.0626 31.571 38.3013 30.9947 38.7262 30.5698C39.1511 30.1449 39.7273 29.9062 40.3282 29.9062ZM36.2501 19.0312C36.2501 18.7909 36.3456 18.5604 36.5155 18.3904C36.6855 18.2205 36.916 18.125 37.1563 18.125C37.3967 18.125 37.6272 18.2205 37.7971 18.3904C37.9671 18.5604 38.0626 18.7909 38.0626 19.0312V22.6562C38.0626 22.8966 37.9671 23.1271 37.7971 23.2971C37.6272 23.467 37.3967 23.5625 37.1563 23.5625C36.916 23.5625 36.6855 23.467 36.5155 23.2971C36.3456 23.1271 36.2501 22.8966 36.2501 22.6562V19.0312ZM31.7188 29.9062H33.9845C34.5853 29.9062 35.1616 30.1449 35.5865 30.5698C36.0114 30.9947 36.2501 31.571 36.2501 32.1719V34.4375H33.9845C33.3836 34.4375 32.8073 34.1988 32.3824 33.7739C31.9575 33.349 31.7188 32.7728 31.7188 32.1719V29.9062ZM32.6251 38.0625C32.3847 38.0625 32.1542 37.967 31.9843 37.7971C31.8143 37.6271 31.7188 37.3966 31.7188 37.1562C31.7188 36.9159 31.8143 36.6854 31.9843 36.5154C32.1542 36.3455 32.3847 36.25 32.6251 36.25H41.6876C41.9279 36.25 42.1584 36.3455 42.3284 36.5154C42.4984 36.6854 42.5938 36.9159 42.5938 37.1562C42.5938 37.3966 42.4984 37.6271 42.3284 37.7971C42.1584 37.967 41.9279 38.0625 41.6876 38.0625H32.6251ZM37.1563 39.875C38.4364 39.8772 39.6746 40.3305 40.6535 41.1552C41.6325 41.98 42.2893 43.1234 42.5086 44.3845C42.2517 44.1034 41.9385 43.8793 41.5894 43.727C41.2403 43.5746 40.8631 43.4973 40.4823 43.5C40.028 43.5081 39.5816 43.6207 39.1778 43.8289C38.7739 44.0371 38.4233 44.3354 38.1532 44.7008C37.7554 45.1358 37.5768 45.3125 37.1636 45.3125C36.7503 45.3125 36.5646 45.1312 36.1667 44.6981C35.8965 44.3334 35.5461 44.0358 35.1426 43.8281C34.7391 43.6203 34.2932 43.5081 33.8395 43.5C33.4561 43.4973 33.0765 43.5755 32.7255 43.7294C32.3744 43.8834 32.0598 44.1097 31.8022 44.3936C32.0199 43.1306 32.6762 41.9849 33.6556 41.1583C34.635 40.3318 35.8747 39.8773 37.1563 39.875ZM31.9119 46.7272C32.2608 46.505 32.576 46.234 32.848 45.9224C33.2468 45.4883 33.4244 45.3125 33.8395 45.3125C34.2545 45.3125 34.4312 45.4883 34.83 45.9233C35.0948 46.2948 35.4445 46.5977 35.85 46.8066C36.2555 47.0156 36.7051 47.1246 37.1613 47.1246C37.6175 47.1246 38.0671 47.0156 38.4726 46.8066C38.8782 46.5977 39.2279 46.2948 39.4926 45.9233C39.8905 45.4883 40.0681 45.3116 40.4823 45.3116C40.8964 45.3116 41.0731 45.4874 41.4728 45.9224C41.7436 46.2311 42.0563 46.5005 42.4017 46.7226C42.0921 47.877 41.4103 48.897 40.4621 49.6245C39.5138 50.352 38.352 50.7463 37.1568 50.7463C35.9616 50.7463 34.7998 50.352 33.8515 49.6245C32.9032 48.897 32.2214 47.877 31.9119 46.7226V46.7272ZM16.3126 21.75C16.0722 21.75 15.8417 21.6545 15.6718 21.4846C15.5018 21.3146 15.4063 21.0841 15.4063 20.8438C15.4063 20.6034 15.5018 20.3729 15.6718 20.2029C15.8417 20.033 16.0722 19.9375 16.3126 19.9375H25.3751C25.6154 19.9375 25.8459 20.033 26.0159 20.2029C26.1859 20.3729 26.2813 20.6034 26.2813 20.8438C26.2813 21.0841 26.1859 21.3146 26.0159 21.4846C25.8459 21.6545 25.6154 21.75 25.3751 21.75H16.3126ZM20.8438 23.5625C22.1254 23.5648 23.3651 24.0193 24.3445 24.8458C25.324 25.6724 25.9803 26.8181 26.198 28.0811C25.9403 27.7972 25.6257 27.5709 25.2747 27.4169C24.9236 27.263 24.544 27.1848 24.1607 27.1875C23.7072 27.1959 23.2618 27.3082 22.8586 27.516C22.4554 27.7237 22.1053 28.0212 21.8353 28.3856C21.4338 28.8224 21.2544 29 20.8384 29C20.4224 29 20.2466 28.8188 19.8488 28.3883C19.5784 28.0227 19.2276 27.7242 18.8234 27.516C18.4192 27.3078 17.9725 27.1954 17.5179 27.1875C17.137 27.1848 16.7598 27.2621 16.4107 27.4145C16.0616 27.5668 15.7485 27.7908 15.4915 28.072C15.7109 26.8109 16.3677 25.6675 17.3466 24.8427C18.3255 24.018 19.5638 23.5647 20.8438 23.5625ZM15.5985 30.411C15.9439 30.1889 16.2565 29.9195 16.5274 29.6108C16.927 29.1758 17.1055 29 17.5179 29C17.9302 29 18.1097 29.1812 18.5075 29.6117C18.7723 29.9832 19.122 30.2861 19.5275 30.495C19.9331 30.704 20.3826 30.813 20.8388 30.813C21.295 30.813 21.7446 30.704 22.1502 30.495C22.5557 30.2861 22.9054 29.9832 23.1702 29.6117C23.5689 29.1767 23.7475 29.0009 24.1607 29.0009C24.574 29.0009 24.7534 29.1767 25.1521 29.6108C25.4241 29.9224 25.7394 30.1934 26.0883 30.4156C25.7787 31.57 25.0969 32.59 24.1486 33.3175C23.2004 34.0449 22.0386 34.4393 20.8434 34.4393C19.6482 34.4393 18.4864 34.0449 17.5381 33.3175C16.5898 32.59 15.908 31.57 15.5985 30.4156V30.411ZM16.3126 38.0625C16.0722 38.0625 15.8417 37.967 15.6718 37.7971C15.5018 37.6271 15.4063 37.3966 15.4063 37.1562C15.4063 36.9159 15.5018 36.6854 15.6718 36.5154C15.8417 36.3455 16.0722 36.25 16.3126 36.25H25.3751C25.6154 36.25 25.8459 36.3455 26.0159 36.5154C26.1859 36.6854 26.2813 36.9159 26.2813 37.1562C26.2813 37.3966 26.1859 37.6271 26.0159 37.7971C25.8459 37.967 25.6154 38.0625 25.3751 38.0625H16.3126ZM20.8438 39.875C22.1254 39.8773 23.3651 40.3318 24.3445 41.1583C25.324 41.9849 25.9803 43.1306 26.198 44.3936C25.9403 44.1097 25.6257 43.8834 25.2747 43.7294C24.9236 43.5755 24.544 43.4973 24.1607 43.5C23.7072 43.5084 23.2618 43.6207 22.8586 43.8285C22.4554 44.0362 22.1053 44.3337 21.8353 44.6981C21.4338 45.1349 21.2544 45.3125 20.8384 45.3125C20.4224 45.3125 20.2466 45.1313 19.8488 44.7008C19.5784 44.3352 19.2276 44.0367 18.8234 43.8285C18.4192 43.6203 17.9725 43.5079 17.5179 43.5C17.137 43.4973 16.7598 43.5746 16.4107 43.727C16.0616 43.8793 15.7485 44.1034 15.4915 44.3845C15.7109 43.1234 16.3677 41.98 17.3466 41.1552C18.3255 40.3305 19.5638 39.8772 20.8438 39.875ZM15.5985 46.7235C15.9439 46.5014 16.2565 46.232 16.5274 45.9233C16.927 45.4883 17.1055 45.3125 17.5179 45.3125C17.9302 45.3125 18.1097 45.4937 18.5075 45.9242C18.7723 46.2957 19.122 46.5986 19.5275 46.8075C19.9331 47.0165 20.3826 47.1255 20.8388 47.1255C21.295 47.1255 21.7446 47.0165 22.1502 46.8075C22.5557 46.5986 22.9054 46.2957 23.1702 45.9242C23.5689 45.4892 23.7475 45.3134 24.1607 45.3134C24.574 45.3134 24.7534 45.4892 25.1521 45.9233C25.4241 46.2349 25.7394 46.5059 26.0883 46.7281C25.7787 47.8825 25.0969 48.9025 24.1486 49.63C23.2004 50.3574 22.0386 50.7518 20.8434 50.7518C19.6482 50.7518 18.4864 50.3574 17.5381 49.63C16.5898 48.9025 15.908 47.8825 15.5985 46.7281V46.7235ZM48.3775 52.5625L47.4713 54.375H10.5289L9.62264 52.5625H48.3775Z" fill="#391E25"/>
<path d="M9.96875 28.0938H11.7812V46.2188H9.96875V28.0938Z" fill="#391E25"/>
<path d="M9.96875 24.4688H11.7812V26.2812H9.96875V24.4688Z" fill="#391E25"/>
<path d="M46.2188 35.3438H48.0312V47.125H46.2188V35.3438Z" fill="#391E25"/>
</svg>
