<svg width="59" height="59" viewBox="0 0 59 59" fill="none" xmlns="http://www.w3.org/2000/svg">
<g clip-path="url(#clip0)">
<path d="M46.6866 0.757497C46.6258 0.282155 46.1901 -0.0531953 45.7156 0.00667266L37.6515 1.03838C37.3535 1.07619 37.096 1.26615 36.9718 1.53983L34.4861 7.00356C34.262 6.96305 34.0315 6.94099 33.7961 6.94099C32.9881 6.94099 32.2197 7.18586 31.5724 7.6414C31.0881 7.38843 30.5583 7.24303 30.0055 7.21287C30.0069 7.17461 30.0073 7.13635 30.0073 7.09854C30.0073 4.9586 28.2666 3.21748 26.1267 3.21748C24.6606 3.21748 23.3345 4.06103 22.6787 5.32186C22.3703 5.24444 22.0525 5.20437 21.7329 5.20437C19.8019 5.20437 18.1953 6.6223 17.9005 8.4719C16.9241 8.84461 16.1351 9.59904 15.7196 10.5587C13.8389 10.8266 12.3877 12.4475 12.3877 14.4011C12.3877 16.2241 13.6517 17.7568 15.3491 18.1709C15.3523 18.2101 15.3559 18.2506 15.3595 18.292C15.5809 20.8551 16.0923 25.9569 17.0385 31.5512C17.0448 31.5876 17.0511 31.6246 17.0574 31.6615C17.0776 31.7821 17.0984 31.9027 17.1195 32.0238C17.1317 32.0936 17.1438 32.1629 17.156 32.2327C17.1735 32.3335 17.1911 32.4343 17.2086 32.5356C17.2275 32.6405 17.2464 32.7463 17.2649 32.8516C17.2775 32.9214 17.2901 32.9907 17.3027 33.0609C17.3707 33.4386 17.4414 33.8172 17.5134 34.1966C17.5165 34.211 17.5192 34.2254 17.5219 34.2398C17.5561 34.4203 17.5912 34.6013 17.6268 34.7818C17.63 34.7985 17.6331 34.8151 17.6363 34.8318C18.4145 38.7984 19.4138 42.796 20.6832 46.158C20.6891 46.1734 20.6949 46.1882 20.7008 46.2035C20.7548 46.3462 20.8097 46.488 20.8646 46.6284C20.8772 46.6608 20.8903 46.6933 20.9029 46.7252C20.9524 46.8508 21.0028 46.9755 21.0532 47.0988C21.0676 47.1339 21.0816 47.1695 21.0964 47.2042C21.1491 47.3329 21.2027 47.4603 21.2567 47.5863C21.267 47.6115 21.2778 47.6367 21.2887 47.6615C21.4169 47.9608 21.5484 48.2534 21.6821 48.5388C21.7014 48.5807 21.7212 48.6216 21.741 48.6635C21.7874 48.7607 21.8338 48.8575 21.8806 48.9529C21.9049 49.0029 21.9296 49.0524 21.9544 49.1019C21.9976 49.1893 22.0413 49.2757 22.0854 49.3612C22.111 49.4112 22.1367 49.4611 22.1624 49.5102C22.2087 49.5989 22.2555 49.6862 22.3024 49.7735C22.3253 49.8158 22.3478 49.8586 22.3708 49.9009C22.4405 50.0279 22.5108 50.1534 22.5819 50.2768L22.7849 50.8633C22.2898 51.2563 21.9711 51.8612 21.9711 52.5405V52.8601C21.9711 53.4003 22.1741 53.8936 22.5054 54.2708C22.4 54.3428 22.2871 54.4063 22.1655 54.4563L18.4861 55.9737C17.7898 56.2609 17.3401 56.9176 17.3401 57.6468C17.3401 58.3927 17.9635 58.9999 18.7305 58.9999H34.5703C35.3373 58.9999 35.9608 58.3927 35.9608 57.6468C35.9608 56.9176 35.5111 56.2609 34.8147 55.9737C34.8143 55.9737 34.8143 55.9737 34.8143 55.9737L31.1358 54.4563C31.0138 54.4063 30.9008 54.3428 30.7955 54.2708C31.1272 53.8936 31.3298 53.4003 31.3298 52.8601V52.5405C31.3298 51.8612 31.0111 51.2558 30.516 50.8633L30.719 50.2768C31.3771 49.1348 32.0113 47.7619 32.605 46.1945C32.7747 45.7466 32.5492 45.2456 32.1009 45.0759C31.6534 44.9062 31.1515 45.1313 30.9818 45.5801C30.4106 47.0885 29.8043 48.397 29.1804 49.4701C29.18 49.471 29.1795 49.4719 29.1791 49.4728C29.1782 49.4742 29.1773 49.476 29.1764 49.4773C29.1719 49.4854 29.1683 49.4935 29.1638 49.5016C29.1552 49.5178 29.1462 49.5341 29.1381 49.5507C29.1264 49.5768 29.1156 49.6029 29.1061 49.6304L28.8401 50.3992H24.4612L24.1947 49.6304C24.1763 49.5773 24.1529 49.526 24.1249 49.4773C24.057 49.3608 23.9899 49.2419 23.9233 49.1213C23.9008 49.0812 23.8792 49.0398 23.8571 48.9997C23.8126 48.9178 23.7684 48.8359 23.7243 48.7526C23.6987 48.7036 23.673 48.654 23.6474 48.6045C23.6077 48.528 23.5686 48.4506 23.529 48.3723C23.5024 48.3191 23.4759 48.2656 23.4493 48.2116C23.411 48.1346 23.3737 48.0572 23.3363 47.9793C23.3098 47.9239 23.2832 47.8686 23.2566 47.8123C23.2188 47.7322 23.1815 47.6507 23.1441 47.5692C23.1189 47.5148 23.0937 47.4607 23.0689 47.4054C23.0221 47.3014 22.9758 47.1961 22.9298 47.0903C22.8907 47.0011 22.8524 46.9111 22.8137 46.8211C22.7817 46.7455 22.7498 46.6703 22.7178 46.5942C22.6854 46.5159 22.653 46.4362 22.621 46.357C22.5958 46.2953 22.5706 46.2332 22.5454 46.1711C22.5112 46.0851 22.477 45.9987 22.4432 45.9118C22.4216 45.8565 22.4 45.8011 22.3784 45.7453C22.3424 45.6516 22.3064 45.5576 22.2708 45.4626C22.2537 45.4171 22.2366 45.3712 22.2195 45.3253C22.1804 45.22 22.1412 45.1137 22.102 45.0071C22.0948 44.9868 22.0881 44.9665 22.0804 44.9467C19.5871 38.0349 18.1953 28.4894 17.5012 22.278H35.7983C35.2257 27.373 34.1166 35.2639 32.2274 41.8021C32.0946 42.2621 32.3597 42.7438 32.8202 42.8766C33.2807 43.0098 33.7623 42.7442 33.8951 42.2837C34.7418 39.3534 36.8151 31.2104 37.9238 18.5013C37.9364 18.3546 37.9486 18.2178 37.9589 18.0949C37.9639 18.035 37.9657 17.9751 37.9652 17.9157C39.285 17.2954 40.2015 15.9536 40.2015 14.4015C40.2015 12.7653 39.1603 11.323 37.6762 10.7658C37.6587 9.50316 37.0339 8.38412 36.0819 7.68821L38.3514 2.69893L45.9358 1.72889C46.4111 1.66767 46.7474 1.23329 46.6866 0.757497ZM23.7072 52.5405C23.7072 52.3447 23.8463 52.1813 24.0309 52.143C24.0574 52.1376 24.0849 52.1349 24.1128 52.1349H29.1885C29.2164 52.1349 29.2439 52.1376 29.2704 52.143C29.455 52.1813 29.5941 52.3447 29.5941 52.5405V52.8596C29.5941 53.0496 29.4631 53.208 29.2866 53.2522C29.274 53.2553 29.2623 53.2571 29.2506 53.2594C29.2304 53.2625 29.2097 53.2657 29.1885 53.2657H24.1128C24.0916 53.2657 24.0709 53.2625 24.0507 53.2594C24.039 53.2571 24.0273 53.2553 24.0147 53.2522C23.8382 53.208 23.7072 53.0496 23.7072 52.8596V52.5405ZM22.8277 56.061C23.389 55.8296 23.876 55.4619 24.2415 55.0014H29.0598C29.4253 55.4619 29.9123 55.8296 30.4741 56.061L33.3914 57.2642H19.9103L22.8277 56.061ZM28.3279 20.5418H17.3158C17.2226 19.6294 17.1515 18.8587 17.1011 18.2821H29.356L28.3279 20.5418ZM16.321 16.5464H16.2688C15.0858 16.5464 14.1234 15.584 14.1234 14.4011C14.1234 13.2181 15.0858 12.2557 16.2688 12.2557L16.3291 12.258C16.7391 12.2665 17.1006 11.9928 17.1969 11.5945C17.3945 10.7766 18.0562 10.1473 18.8822 9.9911C19.2986 9.91278 19.597 9.54502 19.5889 9.12189L19.5876 9.08543C19.5876 7.90248 20.55 6.94009 21.7329 6.94009C22.0935 6.94009 22.4509 7.03237 22.7655 7.20612C23.005 7.33846 23.2927 7.35016 23.542 7.23763C23.7914 7.1251 23.9733 6.90138 24.0327 6.63445C24.2483 5.66036 25.1287 4.9532 26.1262 4.9532C27.3092 4.9532 28.2716 5.91559 28.2716 7.09854C28.2716 7.36727 28.2216 7.63105 28.1226 7.88177C28.0011 8.19056 28.0659 8.54167 28.2905 8.78654C28.5151 9.03097 28.8595 9.12639 29.1773 9.03187C29.3762 8.97245 29.5815 8.94274 29.7876 8.94274C30.2702 8.94274 30.7266 9.10029 31.1074 9.39918C31.4558 9.67241 31.9541 9.63955 32.2634 9.3231C32.6545 8.92383 33.1704 8.69877 33.7232 8.68031L30.145 16.5464H16.321ZM36.1845 18.4631C36.135 19.0203 36.0688 19.7226 35.9851 20.5418H30.2346L31.2627 18.2821H36.2003C36.1953 18.3397 36.1899 18.4014 36.1845 18.4631ZM36.6265 12.2782C37.6749 12.4281 38.4658 13.341 38.4658 14.4011C38.4658 15.4328 37.7334 16.2961 36.7616 16.5C36.6918 16.5149 36.6211 16.5257 36.5505 16.5334C36.5482 16.5338 36.546 16.5343 36.5437 16.5347C36.4694 16.5424 36.3947 16.5464 36.3209 16.5464H32.0523L35.3346 9.33031C35.7092 9.71697 35.941 10.2423 35.941 10.8216C35.941 10.9643 35.9266 11.1074 35.8987 11.2474C35.8514 11.481 35.9027 11.7246 36.0405 11.9195C36.1782 12.1148 36.3902 12.2445 36.6265 12.2782Z" fill="black"/>
<path d="M25.7828 26.1154V37.4466C25.7828 37.926 26.1713 38.3145 26.6507 38.3145C27.1301 38.3145 27.5186 37.926 27.5186 37.4466V26.1154C27.5186 25.636 27.1301 25.2476 26.6507 25.2476C26.1713 25.2476 25.7828 25.636 25.7828 26.1154Z" fill="black"/>
<path d="M32.0383 25.2476C31.5589 25.2476 31.1705 25.636 31.1705 26.1154C31.1705 29.7993 30.3922 34.7004 29.9281 37.2941C29.8439 37.7658 30.1577 38.2168 30.6298 38.301C30.6816 38.3105 30.7329 38.315 30.7838 38.315C31.1961 38.315 31.5616 38.0197 31.6368 37.5997C32.2161 34.3623 32.9062 29.7421 32.9062 26.1154C32.9062 25.636 32.5177 25.2476 32.0383 25.2476Z" fill="black"/>
<path d="M21.6762 37.6638C21.7518 38.0833 22.1173 38.3772 22.5292 38.3772C22.58 38.3772 22.6322 38.3727 22.6845 38.3633C23.1562 38.2778 23.4695 37.8263 23.384 37.3545C23.0423 35.4694 22.7646 33.6706 22.558 32.0083C22.4985 31.533 22.0651 31.1949 21.5897 31.2543C21.1139 31.3138 20.7763 31.7472 20.8353 32.2226C21.046 33.9169 21.3291 35.7471 21.6762 37.6638Z" fill="black"/>
<path d="M21.3701 28.9612C21.8491 28.9346 22.215 28.525 22.1885 28.0465C22.1502 27.36 22.1309 26.7105 22.1309 26.1154C22.1309 25.636 21.7424 25.2476 21.263 25.2476C20.7836 25.2476 20.3951 25.636 20.3951 26.1154C20.3951 26.7425 20.4154 27.4244 20.4555 28.1428C20.4811 28.6051 20.8637 28.9625 21.3211 28.9625C21.3377 28.9625 21.3539 28.9621 21.3701 28.9612Z" fill="black"/>
</g>
<defs>
<clipPath id="clip0">
<rect width="58.8848" height="59" fill="white"/>
</clipPath>
</defs>
</svg>
