<svg width="58" height="58" viewBox="0 0 58 58" fill="none" xmlns="http://www.w3.org/2000/svg">
<path d="M51.6023 35.6556C51.6727 35.3728 51.6677 35.0695 51.5767 34.7741V34.7738L50.7915 32.219C50.1566 30.1537 48.8258 28.334 47.0443 27.0954C47.0386 27.0921 47.0333 27.0881 47.028 27.0845L45.9896 26.4002C44.7799 25.6023 43.1663 26.4738 43.1663 27.9255V29.0575C43.1663 29.9333 43.3213 30.7726 43.6163 31.5496C42.4255 31.9034 41.4578 32.8014 41.023 33.9962C38.8987 34.7359 36.9997 36.1209 35.6406 37.9303C34.1996 39.8488 33.4157 42.1225 33.3606 44.5213C31.1005 45.6726 28.8411 46.49 26.6192 46.9607C28.3931 42.9038 28.4312 38.2674 25.4072 35.0423C26.6972 34.2368 27.9268 33.3965 29.0711 32.5336C30.7146 31.2944 32.2475 29.9639 33.6271 28.5793C38.9136 23.2901 41.9549 17.4129 44.5761 11.7527C45.205 10.3947 45.4964 9.48799 46.6693 8.87202C47.4518 8.46049 47.9387 7.65204 47.9387 6.75928V3.4352H49.5294V7.35467C49.5294 8.08746 49.8543 8.76582 50.4185 9.21518C50.9372 9.6297 51.3092 10.179 51.5236 10.8477C53.2846 16.3914 52.42 22.2434 49.9383 27.502C49.6903 28.0234 50.068 28.639 50.6561 28.639C50.9624 28.639 51.2449 28.4601 51.3753 28.184L51.376 28.183C52.2013 26.4337 52.8448 24.6664 53.2882 22.929C54.395 18.5974 54.2454 14.1635 53.039 10.3638C52.7337 9.39904 52.1695 8.57001 51.4068 7.96633C51.2276 7.82494 51.1204 7.59562 51.1204 7.35467V3.4352C51.1204 2.55638 50.4065 1.84119 49.5294 1.84119H47.9387C47.0612 1.84218 46.3483 2.55638 46.3477 3.4352V6.75928C46.3477 7.05366 46.1841 7.32812 45.9328 7.45855C44.2738 8.32409 43.8224 9.59419 43.1338 11.079C41.0496 15.5813 38.0258 21.9294 32.5031 27.4515C30.1172 29.846 27.3815 31.9727 24.1533 33.9431C22.7711 32.9534 21.0918 32.3783 19.2445 32.2993C18.2101 32.2614 17.1889 32.4065 16.1919 32.7314C17.6777 29.7939 19.8788 27.7628 22.7601 26.6776C23.632 27.5518 24.6717 26.3381 23.9542 25.6199L23.5304 25.1951C23.317 24.9814 23.0017 24.907 22.716 25.0019C19.6624 26.0221 17.1978 28.0051 15.4528 30.8118C15.1787 28.7226 14.4247 26.6368 12.3474 25.3189L9.67151 23.6213C9.07745 23.2443 8.33305 23.2775 7.7745 23.7053C7.22159 24.1288 6.99591 24.8317 7.20002 25.4961L7.98524 28.0512C8.48306 29.6711 9.41066 31.1384 10.6469 32.2943C7.53555 32.3126 4.56856 33.8677 2.93506 36.8148C1.58066 39.289 1.41837 42.3031 2.46578 45.5322C3.25233 47.9496 4.67609 50.2602 6.4752 52.0384C8.37288 53.9138 10.5224 55.0097 12.519 55.1242C12.9335 55.1524 13.35 55.1448 13.7549 55.1019C14.4582 55.0273 15.1717 55.0273 15.8743 55.1016C16.1222 55.1282 16.3728 55.1408 16.6224 55.1408C16.783 55.1408 16.9433 55.1355 17.1019 55.1248C19.1178 55.0094 21.276 53.9042 23.1786 52.0122C24.1417 51.0544 24.9956 49.9442 25.7015 48.7498C28.2537 48.3466 30.8526 47.5102 33.4479 46.2561C34.1688 51.8665 38.9654 56.2157 44.757 56.2157C51.0441 56.2157 56.159 51.0909 56.159 44.7918C56.159 41.1734 54.4687 37.8108 51.6023 35.6556ZM9.50624 27.582L8.72135 25.0275C8.71504 25.0079 8.71139 24.995 8.7406 24.9721C8.80465 24.9233 8.60917 24.834 11.4965 26.666C13.4672 27.9162 13.9093 30.1298 13.9989 32.7606L12.6319 31.8595C11.1457 30.8234 10.0356 29.3047 9.50624 27.582ZM25.6518 45.0387C24.2735 49.2758 20.5448 53.3314 17.003 53.5342C16.6814 53.5557 16.3582 53.5501 16.0426 53.5169C15.635 53.4738 15.2255 53.4522 14.8153 53.4522C14.4054 53.4522 13.9952 53.4738 13.5883 53.5169C13.2737 53.5504 12.9505 53.5557 12.6193 53.5335C11 53.4409 9.21485 52.507 7.59296 50.9037C5.97108 49.3011 4.6877 47.2182 3.97914 45.0391C3.07079 42.2394 3.19226 39.66 4.32861 37.5851C5.56685 35.3516 7.7974 34.0055 10.4441 33.8923C11.6688 33.8475 12.8781 34.1196 14.0463 34.6998L14.3782 34.9185C14.6885 35.1236 15.1173 35.093 15.3947 34.7967C16.621 34.1498 17.8964 33.8462 19.1818 33.8923C24.1334 34.1037 27.7184 38.6687 25.6518 45.0387ZM44.757 27.9255C44.757 27.7403 44.9594 27.6291 45.1154 27.7316C46.0719 28.3622 47.2935 29.0419 48.3695 30.7385C48.3934 30.9588 48.5069 31.1666 48.6964 31.3027C48.9297 31.745 49.1238 32.2083 49.2712 32.6879L50.0564 35.243C50.062 35.2623 50.0664 35.2752 50.0365 35.2981C49.9973 35.328 49.9738 35.3127 49.9565 35.3018L47.2806 33.6039C44.5579 31.8768 44.757 29.3645 44.757 27.9255ZM44.757 54.6214C39.347 54.6214 34.946 50.2121 34.946 44.7918C34.946 40.8295 37.2559 37.3455 40.8003 35.793C40.8607 36.3658 41.0463 36.9227 41.3516 37.4285C41.5009 37.6764 41.7634 37.8128 42.0333 37.8128C42.1733 37.8128 42.3154 37.7759 42.4438 37.6979C42.8198 37.4703 42.9406 36.9804 42.7133 36.6037C42.3874 36.0644 42.2895 35.4276 42.4368 34.8103C42.6296 34.0018 43.2144 33.3756 43.9615 33.113V35.3353C43.9615 35.7717 44.2973 36.1524 44.7328 36.1657C45.1831 36.1789 45.5525 35.8172 45.5525 35.3692V34.3005C46.0506 34.7303 46.3941 34.9284 47.1412 35.4027C47.1356 35.8245 47.0197 36.2413 46.801 36.6037C46.5737 36.9804 46.6942 37.4703 47.0702 37.6979C47.1989 37.7759 47.3406 37.8128 47.481 37.8128C47.7502 37.8128 48.0127 37.676 48.1627 37.4285C48.3678 37.0886 48.5195 36.7199 48.6147 36.3372L49.1052 36.6489C49.3807 36.8234 49.6884 36.9097 49.995 36.9097C50.1676 36.9097 50.3398 36.8819 50.5061 36.8271C53.0572 38.677 54.5683 41.6197 54.5683 44.7922C54.5683 50.2121 50.1673 54.6214 44.757 54.6214Z" fill="#391E25"/>
<path d="M16.8427 24.2909C20.2056 24.2909 22.9416 21.5496 22.9416 18.18C22.9416 14.8108 20.2056 12.0698 16.8427 12.0698C13.4798 12.0698 10.7441 14.8108 10.7441 18.18C10.7441 21.5496 13.4798 24.2909 16.8427 24.2909ZM16.8427 13.6638C19.3285 13.6638 21.3506 15.6899 21.3506 18.18C21.3506 20.6704 19.3285 22.6966 16.8427 22.6966C14.3573 22.6966 12.3348 20.6704 12.3348 18.18C12.3348 15.6899 14.3573 13.6638 16.8427 13.6638Z" fill="#391E25"/>
<path d="M15.2444 17.6814C15.3998 17.8368 15.6035 17.9147 15.807 17.9147C16.0104 17.9147 16.2142 17.8368 16.3695 17.6814L16.6025 17.4478L16.8358 17.6814C16.9908 17.8368 17.1946 17.9147 17.398 17.9147C17.6014 17.9147 17.8052 17.8368 17.9605 17.6814C18.2708 17.3698 18.2708 16.8653 17.9605 16.554L17.7276 16.3207L17.9605 16.0871C18.2708 15.7758 18.2708 15.271 17.9605 14.96C17.6499 14.6487 17.1464 14.6487 16.8358 14.96L16.6025 15.1933L16.3695 14.96C16.0585 14.6487 15.5551 14.6487 15.2444 14.96C14.9341 15.271 14.9341 15.7758 15.2444 16.0871L15.4774 16.3207L15.2444 16.554C14.9341 16.8653 14.9341 17.3701 15.2444 17.6814Z" fill="#391E25"/>
<path d="M31.3439 10.7902C32.6725 9.45904 33.0249 7.60849 32.4259 5.9199L32.6598 5.82299C33.0657 5.65439 33.2586 5.1881 33.0903 4.78155C32.922 4.37467 32.4567 4.18185 32.0508 4.35011L31.6659 4.50975C31.6586 4.49946 31.6516 4.48884 31.6436 4.47822L31.939 4.18218C32.2496 3.87088 32.2496 3.36609 31.939 3.05512C31.6284 2.74382 31.1246 2.74382 30.8139 3.05546L30.5176 3.35216C30.5073 3.34419 30.497 3.33722 30.487 3.32926L30.6467 2.94295C30.8146 2.5364 30.6221 2.07011 30.2162 1.90185C29.8107 1.73326 29.345 1.92674 29.1768 2.33329L29.0805 2.56627C27.381 1.95727 25.547 2.32068 24.2192 3.65118C22.362 5.51202 20.4009 10.4212 22.4941 12.5186C24.5998 14.6284 29.5087 12.6288 31.3439 10.7902ZM23.4416 8.30278C23.8256 6.95071 24.5899 5.53458 25.3443 4.77857C26.6933 3.42683 28.6554 3.66279 29.9939 5.00391C31.4063 6.41904 31.5009 8.37845 30.2189 9.66315C29.4649 10.4185 28.0511 11.1848 26.7016 11.5695C25.2852 11.9727 24.1329 11.9063 23.6191 11.3912C23.1054 10.8765 23.039 9.72189 23.4416 8.30278Z" fill="#391E25"/>
<path d="M27.7394 8.38991C28.0497 8.07861 28.0497 7.57416 27.7394 7.26252C27.4288 6.95155 26.9253 6.95155 26.6143 7.26252C26.3037 7.57416 26.3037 8.07861 26.6143 8.38991C26.9253 8.70121 27.4288 8.70121 27.7394 8.38991Z" fill="#391E25"/>
<path d="M25.4892 10.6446C25.8001 10.3333 25.8001 9.8288 25.4892 9.51717C25.1785 9.20587 24.6751 9.20587 24.3641 9.51717C24.0534 9.8288 24.0534 10.3333 24.3641 10.6446C24.6751 10.9559 25.1785 10.9559 25.4892 10.6446Z" fill="#391E25"/>
<path d="M25.4892 8.38991C25.8001 8.07861 25.8001 7.57416 25.4892 7.26252C25.1785 6.95155 24.6751 6.95155 24.3641 7.26252C24.0534 7.57416 24.0534 8.07861 24.3641 8.38991C24.6751 8.70121 25.1785 8.70121 25.4892 8.38991Z" fill="#391E25"/>
<path d="M27.7394 10.6446C28.0497 10.3333 28.0497 9.8288 27.7394 9.51717C27.4288 9.20587 26.9253 9.20587 26.6143 9.51717C26.3037 9.8288 26.3037 10.3333 26.6143 10.6446C26.9253 10.9559 27.4288 10.9559 27.7394 10.6446Z" fill="#391E25"/>
<path d="M29.989 8.38991C30.2997 8.07861 30.2997 7.57416 29.989 7.26252C29.6787 6.95155 29.1746 6.95155 28.8643 7.26252C28.5537 7.57416 28.5537 8.07861 28.8643 8.38991C29.1746 8.70121 29.6784 8.70121 29.989 8.38991Z" fill="#391E25"/>
<path d="M27.7394 6.13568C28.0497 5.82471 28.0497 5.31959 27.7394 5.00862C27.4288 4.69732 26.9253 4.69732 26.6143 5.00862C26.3037 5.32025 26.3037 5.82471 26.6143 6.13568C26.9253 6.44731 27.4288 6.44731 27.7394 6.13568Z" fill="#391E25"/>
<path d="M31.3265 12.9871C31.0149 13.1739 30.7521 13.4285 30.5553 13.7265C29.6834 13.2917 28.569 13.3989 27.7924 14.1769C27.0281 14.9432 26.9056 16.0573 27.3503 16.9451C26.8661 17.262 26.5057 17.7502 26.351 18.3293C26.1977 18.9031 26.2624 19.4985 26.5279 20.0236C25.9763 20.3846 25.595 20.9611 25.4802 21.6146C25.2618 22.8525 26.049 24.0542 27.272 24.3506C28.2885 24.5968 29.2901 24.1571 29.8304 23.3364C30.527 23.6882 31.3913 23.6971 32.1267 23.2551C32.4403 23.0662 32.7052 22.809 32.9026 22.5077C33.7708 22.9441 34.8849 22.8472 35.6658 22.0653C36.4262 21.303 36.5533 20.1905 36.1089 19.2997C36.6187 18.9679 36.9884 18.4471 37.1301 17.8262C37.2472 17.3138 37.1838 16.7927 36.9814 16.3357C37.3806 16.1817 37.5894 15.7384 37.448 15.3305C37.3036 14.915 36.8503 14.6956 36.4348 14.8396L35.9662 15.0032L36.2801 14.6883C36.5908 14.3773 36.5908 13.8725 36.2801 13.5612C35.9695 13.2503 35.4657 13.2503 35.1551 13.5612L34.8411 13.8762L35.0041 13.4062C35.1484 12.9904 34.9294 12.5361 34.5142 12.3914C34.1097 12.2506 33.6686 12.4571 33.5136 12.853C32.8333 12.554 32.0208 12.5709 31.3265 12.9871ZM33.3224 15.2485C33.3065 15.3069 33.2986 15.3653 33.2962 15.4234L33.0072 15.7135C32.2837 16.4383 33.3397 17.634 34.1946 16.7778C34.4707 16.5 34.7684 16.4423 35.0592 16.5402C35.7956 16.7884 35.7734 17.8889 34.9818 18.0728C34.1976 18.2553 33.9354 19.238 34.5225 19.7906C34.6785 19.9379 34.7701 20.1487 34.7734 20.3694C34.7844 21.0753 33.9002 21.4596 33.3938 20.9186C32.8479 20.3349 31.8628 20.5987 31.6823 21.379C31.5419 21.9846 30.7713 22.2246 30.3239 21.745C29.7763 21.1599 28.794 21.4254 28.6114 22.2087C28.5192 22.6039 28.1067 22.9132 27.646 22.8014C26.9766 22.6388 26.803 21.7291 27.41 21.3501C27.7469 21.1393 28.0353 21.2658 28.1531 21.2837C29.1332 21.4948 30.0926 21.0501 30.6054 20.227C30.6767 20.2652 30.7504 20.3 30.8261 20.3312C32.501 21.0219 34.3148 19.5848 33.4174 18.6858C33.1067 18.3748 32.6029 18.3748 32.2923 18.6858C31.8061 19.1733 31.0033 18.8381 30.9389 18.2165C30.8838 16.9384 29.3084 17.1458 29.3436 18.1478C29.3515 18.8162 29.5029 19.236 29.0847 19.5782C28.8912 19.7372 28.634 19.7763 28.4638 19.7196C28.2759 19.7196 27.7287 19.3376 27.888 18.7415C27.964 18.4564 28.19 18.2374 28.4774 18.1697C29.2579 17.9872 29.5241 17.0018 28.9373 16.4532C28.78 16.3062 28.6878 16.0955 28.6838 15.8744C28.6718 15.1645 29.5673 14.7842 30.0627 15.3132C30.6087 15.8963 31.5904 15.6328 31.7729 14.8546C31.8214 14.6495 31.9561 14.4673 32.143 14.3554C32.742 13.9963 33.5093 14.5479 33.3224 15.2485Z" fill="#391E25"/>
<path d="M40.6203 39.4889C40.6203 39.9286 40.2635 40.2854 39.8241 40.2854C39.3837 40.2854 39.0276 39.9286 39.0276 39.4889C39.0276 39.0488 39.3837 38.6924 39.8241 38.6924C40.2635 38.6924 40.6203 39.0488 40.6203 39.4889Z" fill="#391E25"/>
<path d="M42.7442 42.4628C42.7442 42.9032 42.3874 43.2593 41.9477 43.2593C41.5079 43.2593 41.1511 42.9032 41.1511 42.4628C41.1511 42.023 41.5079 41.6663 41.9477 41.6663C42.3874 41.6663 42.7442 42.023 42.7442 42.4628Z" fill="#391E25"/>
<path d="M38.4961 44.799C38.4961 45.2394 38.14 45.5955 37.6996 45.5955C37.2598 45.5955 36.9031 45.2394 36.9031 44.799C36.9031 44.3592 37.2598 44.0024 37.6996 44.0024C38.14 44.0024 38.4961 44.3592 38.4961 44.799Z" fill="#391E25"/>
</svg>
