<svg width="58" height="58" viewBox="0 0 58 58" fill="none" xmlns="http://www.w3.org/2000/svg">
<path d="M53.9858 26.8801C49.3842 22.7558 45.8022 17.9574 43.3383 12.6199C42.9491 11.773 42.094 11.2258 41.1613 11.2258C40.2285 11.2258 39.3735 11.773 38.9843 12.6185C37.8003 15.1838 36.3519 17.6207 34.6627 19.9211C33.9917 18.3506 32.947 16.92 31.5342 15.6534C26.9326 11.53 23.3506 6.73156 20.8867 1.39409C20.4975 0.547222 19.6424 0 18.7097 0C17.7769 0 16.9218 0.547222 16.5327 1.39272C14.0688 6.73156 10.4867 11.53 5.88514 15.6543C3.22075 18.0419 1.87097 20.9575 1.87097 24.3226C1.87097 27.4163 3.25729 30.3525 5.7746 32.6999C5.205 33.2659 4.61941 33.8213 4.01418 34.364C1.34978 36.7515 0 39.6672 0 43.0323C0 50.2544 7.55421 56.129 16.8387 56.129C17.1699 56.129 17.4983 56.1217 17.8249 56.1076L17.7422 54.2384C17.443 54.2517 17.142 54.2581 16.8387 54.2581C8.58608 54.2581 1.87097 49.2225 1.87097 43.0323C1.87097 40.2222 3.01246 37.7738 5.2621 35.7571C9.06844 32.3455 12.1951 28.4816 14.6142 24.2468L13.7893 27.2702C13.3781 28.7775 12.73 30.2013 11.863 31.5022L10.2351 33.9442C8.43626 36.6437 7.48387 39.7859 7.48387 43.0323H9.35484C9.35484 40.1573 10.1976 37.3737 11.7918 34.9824L13.4197 32.541C14.3991 31.072 15.1294 29.4641 15.5935 27.7635L16.8387 23.2007L18.083 27.7635C18.5471 29.4641 19.2775 31.072 20.2568 32.541L21.8848 34.9824C22.463 35.8494 22.9504 36.784 23.33 37.7587L25.0726 37.0777C24.6432 35.9778 24.0942 34.9235 23.4415 33.9442L21.8135 31.5022C20.9465 30.2013 20.2993 28.7775 19.8873 27.2702L19.0632 24.2468C21.4823 28.4806 24.6081 32.3455 28.4153 35.7562C30.665 37.7738 31.8065 40.2222 31.8065 43.0323C31.8065 43.8883 31.6772 44.7397 31.4228 45.5628L33.2097 46.1155C33.5203 45.1129 33.6774 44.0755 33.6774 43.0323C33.6774 39.6672 32.3276 36.7515 29.6632 34.364C28.7287 33.5267 27.8485 32.6538 26.9988 31.7626C27.5657 30.4923 28.4226 29.3161 29.5847 28.2733C33.391 24.8616 36.5177 20.9977 38.9368 16.7629L38.1118 19.7863C37.7007 21.2937 37.0526 22.7175 36.1856 24.0184L34.5576 26.4603C32.7588 29.1599 31.8065 32.3021 31.8065 35.5484H33.6774C33.6774 32.6734 34.5202 29.8898 36.1143 27.4986L37.7423 25.0571C38.7216 23.5881 39.452 21.9802 39.9161 20.2796L41.1613 15.7169L42.4056 20.2796C42.8696 21.9802 43.6 23.5881 44.5794 25.0571L46.2073 27.4986C47.8024 29.8898 48.6452 32.6734 48.6452 35.5484H50.5161C50.5161 32.3021 49.5637 29.1599 47.7649 26.4603L46.137 24.0184C45.27 22.7175 44.6228 21.2937 44.2107 19.7863L43.3867 16.7629C45.8058 20.9968 48.9316 24.8616 52.7388 28.2724C54.9875 30.2899 56.129 32.7383 56.129 35.5484C56.129 40.742 51.4311 45.228 44.7022 46.4572L45.038 48.298C52.6708 46.9035 58 41.661 58 35.5484C58 32.1833 56.6502 29.2677 53.9858 26.8801ZM28.3358 26.8801C27.1975 27.901 26.2945 29.0356 25.6331 30.263C22.9276 27.156 20.7031 23.7603 19.0157 20.1038C18.6265 19.2569 17.7715 18.7097 16.8387 18.7097C15.906 18.7097 15.0509 19.2569 14.6617 20.1024C12.7747 24.1906 10.2268 27.9599 7.07231 31.3547C4.92454 29.3599 3.74194 26.8952 3.74194 24.3226C3.74194 21.5125 4.88343 19.0641 7.13306 17.0475C10.9394 13.6358 14.0661 9.77188 16.4852 5.53708L15.6602 8.5605C15.2491 10.0679 14.6009 11.4917 13.734 12.7926L12.106 15.2345C10.3072 17.9341 9.35484 21.0763 9.35484 24.3226H11.2258C11.2258 21.4476 12.0686 18.664 13.6627 16.2728L15.2907 13.8313C16.27 12.3623 17.0004 10.7544 17.4645 9.05382L18.7097 4.49105L19.9539 9.05382C20.418 10.7544 21.1484 12.3623 22.1278 13.8313L23.7557 16.2728C25.3508 18.664 26.1935 21.4476 26.1935 24.3226H28.0645C28.0645 21.0763 27.1121 17.9341 25.3133 15.2345L23.6854 12.7926C22.8184 11.4917 22.1712 10.0679 21.7591 8.5605L20.9342 5.53799C23.3533 9.77188 26.479 13.6367 30.2854 17.0475C31.7932 18.3991 32.8018 19.9558 33.3033 21.6769C31.8083 23.5095 30.1552 25.2498 28.3358 26.8801Z" fill="#391E25"/>
<path d="M29 52.3871H30.871V54.2581H29V52.3871Z" fill="#391E25"/>
<path d="M28.9356 50.6715C28.5555 48.4131 26.6165 46.7742 24.3226 46.7742H22.9193C21.1137 46.7742 19.6451 45.3057 19.6451 43.5C19.6451 41.6944 21.1137 40.2258 22.9193 40.2258V42.0968C22.1456 42.0968 21.5161 42.7262 21.5161 43.5C21.5161 44.2738 22.1456 44.9033 22.9193 44.9033H24.3226C27.5342 44.9033 30.2497 47.199 30.7801 50.3608L28.9356 50.6715Z" fill="#391E25"/>
</svg>
