<svg width="58" height="58" viewBox="0 0 58 58" fill="none" xmlns="http://www.w3.org/2000/svg">
<g clip-path="url(#clip0)">
<path d="M56.8673 28.6602H55.653C55.1517 25.1688 52.3679 22.4049 48.8667 21.9341C48.3464 18.0622 45.0205 15.0664 41.0078 15.0664C40.3959 15.0664 39.7932 15.1354 39.206 15.2722C37.9563 12.4339 35.1172 10.5351 31.9453 10.5351C28.7735 10.5351 25.9343 12.4339 24.6847 15.2722C24.0975 15.1354 23.4948 15.0664 22.8828 15.0664C21.2292 15.0664 19.6499 15.5726 18.3241 16.5081L6.57604 0.57387C6.20477 0.0702982 5.49544 -0.0372308 4.99187 0.334032C4.48829 0.705294 4.38121 1.41463 4.75247 1.9182L16.6638 18.0741C15.774 19.1928 15.2111 20.5176 15.023 21.9332C14.8487 21.9566 14.6752 21.9876 14.5031 22.0226L2.04522 5.10557C1.67396 4.60156 0.964621 4.49403 0.461049 4.86529C-0.042522 5.23611 -0.150051 5.94545 0.220769 6.44902L12.2835 22.8293C10.0922 24.0196 8.59076 26.1724 8.23765 28.6602H7.02341C6.39771 28.6602 5.89059 29.1673 5.89059 29.793C5.89059 32.9715 6.51807 36.1607 7.58362 39.0883C7.79735 39.6759 8.44739 39.9795 9.03548 39.7653C9.62313 39.5516 9.92625 38.9015 9.71252 38.3134C9.37046 37.374 9.08372 36.4169 8.85184 35.4557H55.0393C53.3356 42.5031 48.6751 48.7455 43.1137 51.3165H20.7752C18.29 50.1686 15.9364 48.2853 13.9557 45.8542C13.5605 45.3688 12.8468 45.2962 12.3618 45.6913C11.8768 46.0861 11.8038 46.7998 12.199 47.2848C14.3071 49.873 16.8152 51.9117 19.4844 53.2135V56.9801C19.4844 57.6058 19.9915 58.1129 20.6172 58.1129H43.2735C43.8992 58.1129 44.4063 57.6058 44.4063 56.9801V53.214C52.6103 49.2177 58.0001 39.0821 58.0001 29.793C58.0001 29.1673 57.493 28.6602 56.8673 28.6602ZM21.75 55.8477V53.5821H42.1407V55.8477H21.75ZM8.18499 30.9249H55.7057C55.6676 31.6745 55.5919 32.4325 55.4804 33.1914H8.41066C8.29871 32.433 8.22304 31.6745 8.18499 30.9249ZM16.0753 24.1289H16.0859C16.3859 24.1289 16.674 24.0099 16.8864 23.7979C17.0993 23.5855 17.2187 23.297 17.2187 22.9961C17.2187 19.8618 19.7556 17.332 22.8828 17.332C23.6037 17.332 24.3055 17.4652 24.9692 17.7281C25.2688 17.8471 25.6047 17.8325 25.8932 17.6882C26.1812 17.544 26.3945 17.2838 26.4791 16.9727C27.1486 14.5164 29.3961 12.8008 31.9453 12.8008C34.4942 12.8008 36.7416 14.5164 37.4112 16.9727C37.4957 17.2838 37.709 17.544 37.9975 17.6882C38.2856 17.8325 38.6214 17.8471 38.9214 17.7281C39.5848 17.4652 40.2866 17.332 41.0074 17.332C44.1306 17.332 46.6715 19.8729 46.6715 22.9961C46.6715 23.6218 47.1786 24.1289 47.8043 24.1289C50.5399 24.1289 52.8281 26.0782 53.3546 28.6602H10.5342C11.0723 25.9857 13.4234 24.1289 16.0753 24.1289Z" fill="#391E25"/>
<path d="M34.63 19.0836C32.899 18.3937 30.9918 18.3937 29.2607 19.0836C28.6792 19.315 28.396 19.9739 28.6275 20.5549C28.8589 21.1363 29.5178 21.42 30.0992 21.1881C31.2896 20.7142 32.6012 20.7142 33.7919 21.1881C34.3707 21.4191 35.031 21.1385 35.2637 20.5549C35.4951 19.9739 35.2115 19.315 34.63 19.0836Z" fill="#391E25"/>
<path d="M43.6925 23.6146C41.9615 22.9247 40.0543 22.9247 38.3232 23.6146C37.7417 23.846 37.4585 24.5049 37.69 25.0859C37.9214 25.6673 38.5803 25.9506 39.1613 25.7191C40.3521 25.2452 41.6637 25.2452 42.8544 25.7191C43.4332 25.9501 44.0935 25.6696 44.3262 25.0859C44.5576 24.5049 44.274 23.846 43.6925 23.6146Z" fill="#391E25"/>
<path d="M25.5676 23.6146C23.8365 22.9247 21.9293 22.9247 20.1982 23.6146C19.6167 23.846 19.3335 24.5049 19.565 25.0859C19.7964 25.6673 20.4553 25.9506 21.0367 25.7191C22.2271 25.2452 23.5387 25.2452 24.7295 25.7191C25.3082 25.9501 25.9689 25.6696 26.2012 25.0859C26.4327 24.5049 26.149 23.846 25.5676 23.6146Z" fill="#391E25"/>
<path d="M11.668 42.8203C11.668 42.1951 11.1604 41.6875 10.5352 41.6875C9.9099 41.6875 9.40234 42.1951 9.40234 42.8203C9.40234 43.4456 9.9099 43.9531 10.5352 43.9531C11.1604 43.9531 11.668 43.4456 11.668 42.8203Z" fill="#391E25"/>
</g>
<defs>
<clipPath id="clip0">
<rect width="58" height="58" fill="white"/>
</clipPath>
</defs>
</svg>
