<svg width="58" height="58" viewBox="0 0 58 58" fill="none" xmlns="http://www.w3.org/2000/svg">
<g clip-path="url(#clip0)">
<path d="M56.5068 34.7817C56.5103 34.7293 56.5103 34.6765 56.5068 34.624C56.4765 34.5561 56.44 34.4912 56.3977 34.4299L56.2885 34.2844L34.7078 13.662C34.5318 13.4902 34.3075 13.3759 34.0649 13.3345C32.2157 13.0764 30.3518 12.9386 28.4847 12.9221C27.7727 12.3683 26.9425 11.9863 26.0586 11.806C25.8524 9.57397 26.095 4.52756 30.2558 2.2955C30.8454 1.96054 31.0518 1.21101 30.7168 0.62145C30.3818 0.0318943 29.6323 -0.174481 29.0427 0.160481C23.6445 3.084 23.2928 9.17365 23.4141 11.7939C22.3318 12.0364 21.3397 12.5788 20.5512 13.3588C11.6836 14.6932 5.13298 18.6478 1.57866 24.8345V24.8951V24.9679C1.518 25.11 1.4851 25.2624 1.48161 25.4168V47.0824C1.47191 47.6755 1.89269 48.1887 2.47633 48.2954L55.0875 58.0001H55.3059C55.9758 58.0001 56.519 57.4569 56.519 56.787V35.0486C56.519 35.0486 56.519 35.0486 56.519 34.9637C56.5194 34.9029 56.5153 34.8421 56.5068 34.7817ZM24.8212 14.026C26.7508 14.0193 28.3204 15.5779 28.327 17.5075C28.3337 19.4371 26.775 21.0066 24.8455 21.0133C22.9159 21.02 21.3464 19.4613 21.3397 17.5318C21.3397 17.5277 21.3397 17.5237 21.3397 17.5196C21.3397 15.5949 22.8964 14.0326 24.8212 14.026ZM19.1076 16.0639C18.9828 16.5351 18.9176 17.0201 18.9135 17.5075C18.8177 20.7755 21.3891 23.5025 24.6572 23.5984C27.9252 23.6942 30.6522 21.1228 30.748 17.8547C30.7737 16.9812 30.6055 16.1128 30.2558 15.3118C31.6266 15.3846 32.682 15.5059 33.1672 15.5666L51.5817 33.1683L4.78118 24.5312C7.77749 20.2127 12.6055 17.3862 19.1076 16.0639ZM3.94416 46.0634V40.2406L54.1292 49.278L54.1413 55.3313L3.94416 46.0634ZM3.94416 37.778V34.1388L54.1292 43.1762L54.1413 46.8397L3.94416 37.778ZM3.94416 31.7005V26.8482L41.1735 33.7264L54.1171 36.1525L54.1413 40.7743L3.94416 31.7005Z" fill="#391E25"/>
</g>
<defs>
<clipPath id="clip0">
<rect width="58" height="58" fill="white"/>
</clipPath>
</defs>
</svg>
