<svg width="58" height="58" viewBox="0 0 58 58" fill="none" xmlns="http://www.w3.org/2000/svg">
<g clip-path="url(#clip0)">
<path d="M11.6417 28.2185C11.2367 27.8135 10.58 27.8136 10.1752 28.2184C9.77006 28.6231 9.77006 29.2794 10.1752 29.6842C10.58 30.0891 11.2367 30.089 11.6416 29.6841C12.0466 29.2794 12.0468 28.6231 11.6417 28.2185Z" fill="black"/>
<path d="M45.9438 42.1425C45.5803 41.8134 45.019 41.8413 44.6899 42.2048C44.3628 42.5662 44.0143 42.9149 43.6542 43.2415C40.9277 45.7154 37.3962 47.0779 33.71 47.0779C33.2198 47.0779 32.8223 47.4754 32.8223 47.9657C32.8222 48.456 33.2197 48.8535 33.7099 48.8535C37.8381 48.8535 41.7934 47.3274 44.8469 44.5565C45.2499 44.1911 45.6398 43.8008 46.006 43.3964C46.3352 43.033 46.3073 42.4716 45.9438 42.1425Z" fill="#391E25"/>
<path d="M48.9044 36.3027C48.4381 36.1509 47.9372 36.4054 47.7852 36.8717C47.3814 38.1105 46.8137 39.2921 46.0978 40.3835C45.829 40.7937 45.9434 41.3439 46.3534 41.6128C46.5035 41.7113 46.6724 41.7583 46.8394 41.7583C47.1286 41.7583 47.412 41.6173 47.5825 41.3573C48.3845 40.1343 49.0208 38.8103 49.4733 37.4219C49.6254 36.9559 49.3707 36.4547 48.9044 36.3027Z" fill="#391E25"/>
<path d="M42.6474 0H40.0346C39.5443 0 39.1468 0.397503 39.1468 0.887783C39.1468 1.37806 39.5443 1.77557 40.0346 1.77557H42.6474C44.246 1.77557 45.5467 3.07524 45.5467 4.67296C45.5467 6.27067 44.2461 7.57046 42.6474 7.57046H40.0769H36.7462H35.1324C32.8932 7.57046 31.0715 9.39145 31.0715 11.6298V13.6891C31.0715 14.1793 31.469 14.5768 31.9593 14.5768C32.4496 14.5768 32.8471 14.1793 32.8471 13.689V11.6297C32.8471 10.3703 33.8724 9.34591 35.1325 9.34591H36.7463H40.077H42.6475C45.2252 9.34591 47.3223 7.24965 47.3223 4.67284C47.3223 2.09627 45.2252 0 42.6474 0Z" fill="#391E25"/>
<path d="M19.2651 19.9537H12.5029C10.6878 19.9537 9.211 18.4778 9.211 16.6639C9.211 14.8499 10.6877 13.3741 12.5029 13.3741H15.6146C16.1048 13.3741 16.5023 12.9766 16.5023 12.4863C16.5023 11.996 16.1048 11.5985 15.6146 11.5985H12.5029C9.70876 11.5985 7.43555 13.8708 7.43555 16.6638C7.43555 19.4566 9.70887 21.729 12.5029 21.729H19.2651C19.7554 21.729 20.1529 21.3315 20.1529 20.8412C20.1529 20.3509 19.7554 19.9537 19.2651 19.9537Z" fill="#391E25"/>
<path d="M22.3009 2.26038H18.179C17.6888 2.26038 17.2913 2.65788 17.2913 3.14816C17.2913 3.63844 17.6886 4.03594 18.1789 4.03594H22.3008C24.387 4.03594 26.0842 5.73221 26.0842 7.81715C26.0842 9.9022 24.387 11.5985 22.3008 11.5985H18.6502C18.1599 11.5985 17.7624 11.996 17.7624 12.4863C17.7624 12.9765 18.1599 13.374 18.6502 13.374H22.3009C25.3662 13.374 27.8599 10.8813 27.8599 7.81715C27.8599 4.75313 25.3662 2.26038 22.3009 2.26038Z" fill="#391E25"/>
<path d="M43.0188 13.3417H40.8984C40.4081 13.3417 40.0106 13.7392 40.0106 14.2295C40.0106 14.7197 40.4081 15.1172 40.8984 15.1172H43.0188C44.7149 15.1172 46.0949 16.4963 46.0949 18.1915C46.0948 19.8866 44.7149 21.2657 43.0188 21.2657H37.1126C36.6224 21.2657 36.2249 21.6632 36.2249 22.1535C36.2249 22.6438 36.6224 23.0413 37.1126 23.0413H43.0188C45.694 23.0413 47.8704 20.8657 47.8704 18.1915C47.8704 15.5172 45.694 13.3417 43.0188 13.3417Z" fill="#391E25"/>
<path d="M54.5473 33.3235H48.951C48.354 31.3451 46.5142 29.8999 44.3427 29.8999C43.8998 29.8999 43.471 29.9611 43.0634 30.0736L40.4934 27.5049C40.1102 27.1221 39.6005 26.9112 39.0587 26.9112C38.5168 26.9112 38.0072 27.1221 37.6239 27.5052L35.8757 29.2524L35.0624 25.723C34.9522 25.2452 34.4758 24.9474 33.9979 25.0573C33.5202 25.1674 33.222 25.644 33.332 26.1218L34.0784 29.3605L33.7922 29.0743C33.4089 28.6912 32.8992 28.4802 32.3573 28.4802C31.8152 28.4802 31.3056 28.6912 30.9224 29.0743L26.671 33.3235H26.5344C26.2642 31.7508 25.2283 30.4371 23.8246 29.7808L25.9019 20.7665C25.9834 20.4136 26.2933 20.1671 26.6559 20.1671H31.3439C31.7065 20.1671 32.0164 20.4137 32.0977 20.7664L32.568 22.8074C32.6783 23.2852 33.155 23.5827 33.6325 23.473C34.1103 23.3628 34.4083 22.8864 34.2982 22.4085L33.8281 20.3679C33.5599 19.2044 32.5385 18.3916 31.3442 18.3916H26.6561C25.4618 18.3916 24.4404 19.2042 24.1721 20.3679L22.9261 25.7742L21.5116 24.3605C21.1284 23.9774 20.6186 23.7663 20.0767 23.7663C19.5346 23.7663 19.0251 23.9774 18.6417 24.3605L16.0118 26.989C14.2243 25.6849 12.2315 24.9395 10.4251 24.9395C8.99256 24.9395 7.76879 25.4057 6.88621 26.2877C5.67818 27.4952 5.26108 29.3086 5.7116 31.3938C5.85083 32.0378 6.07127 32.6854 6.36116 33.3237H3.45312C1.66509 33.3237 0.210449 34.7779 0.210449 36.5653C0.210449 38.3526 1.66509 39.8068 3.45312 39.8068H6.28254C7.37547 42.4199 9.03674 44.7864 11.1787 46.7301C14.0205 49.3089 17.5258 50.9709 21.27 51.5545L20.587 53.218H19.073C17.92 53.218 16.982 54.1558 16.982 55.3084V55.9098C16.982 57.0625 17.9201 58.0002 19.073 58.0002H31.3676C31.8579 58.0002 32.2554 57.6027 32.2554 57.1124C32.2554 56.6221 31.8579 56.2246 31.3676 56.2246H19.0732C18.8992 56.2246 18.7577 56.0834 18.7577 55.9098V55.3084C18.7577 55.1348 18.8993 54.9936 19.0732 54.9936H38.9272C39.1012 54.9936 39.2427 55.1349 39.2427 55.3084V55.9098C39.2427 56.0835 39.1011 56.2246 38.9272 56.2246H34.9185C34.4282 56.2246 34.0307 56.6221 34.0307 57.1124C34.0307 57.6027 34.4282 58.0002 34.9185 58.0002H38.9272C40.0802 58.0002 41.0181 57.0625 41.0181 55.9098V55.3084C41.0181 54.1558 40.08 53.218 38.9272 53.218H37.4132L36.7302 51.5545C40.4745 50.9708 43.9796 49.3088 46.8215 46.7301C48.9636 44.7865 50.6248 42.4199 51.7176 39.8068H54.5471C56.335 39.8068 57.7897 38.3526 57.7897 36.5653C57.7897 34.7779 56.3352 33.3235 54.5473 33.3235ZM3.45312 38.031C2.64418 38.031 1.98602 37.3734 1.98602 36.5651C1.98602 35.7567 2.64429 35.0991 3.45312 35.0991H4.98026C5.12469 36.0971 5.34616 37.0767 5.64001 38.031H3.45312ZM44.3427 31.6755C45.5169 31.6755 46.5346 32.3466 47.0397 33.3235H41.6457C42.1507 32.3465 43.1685 31.6755 44.3427 31.6755ZM38.8788 28.761C38.9403 28.6995 39.0106 28.6867 39.0587 28.6867C39.1069 28.6867 39.1772 28.6996 39.2385 28.7609L41.3924 30.9138C40.6143 31.5194 40.026 32.3576 39.7344 33.3235H38.0439L36.1791 31.4596L38.8788 28.761ZM32.1778 30.3302C32.2393 30.2688 32.3095 30.2559 32.3576 30.2559C32.4056 30.2559 32.4758 30.2688 32.5373 30.3303L35.5324 33.3236H29.1829L32.1778 30.3302ZM24.7173 33.3235H20.6357C20.4784 32.7763 20.2675 32.2293 20.0047 31.6905C20.5067 31.3232 21.1245 31.105 21.7929 31.105C23.1844 31.1049 24.3595 32.0454 24.7173 33.3235ZM19.8971 25.616C19.9586 25.5545 20.0289 25.5416 20.0769 25.5416C20.1249 25.5416 20.195 25.5545 20.2565 25.616L22.4559 27.8143L22.1042 29.3407C22.0011 29.334 21.8974 29.3296 21.7928 29.3296C20.7962 29.3296 19.87 29.6346 19.1013 30.1553C18.6586 29.515 18.1467 28.8989 17.5709 28.3234C17.507 28.2595 17.4425 28.1965 17.3777 28.1342L19.8971 25.616ZM8.14171 27.5432C8.82694 26.8583 9.76197 26.7146 10.4255 26.7146C12.3192 26.7146 14.5212 27.7853 16.3157 29.5789C17.4523 30.7149 18.3014 32.0165 18.7717 33.3233H12.3159L14.3721 31.2681C14.7189 30.9216 14.719 30.3594 14.3724 30.0128C14.0258 29.6658 13.4635 29.6658 13.117 30.0124L9.80456 33.3234H8.35037C7.92262 32.5652 7.61336 31.7863 7.44741 31.0184C7.12863 29.5436 7.37525 28.3095 8.14171 27.5432ZM22.5064 53.2177L23.1081 51.7521C23.5006 51.7757 23.8947 51.7889 24.2903 51.7889H33.7099C34.1055 51.7889 34.4997 51.7757 34.8921 51.7521L35.4938 53.2177H22.5064ZM45.6284 45.4148C42.3604 48.3801 38.1278 50.0133 33.71 50.0133H24.2904C19.8726 50.0133 15.6399 48.3803 12.3718 45.4148C9.37171 42.6924 7.40765 39.0595 6.77531 35.099H51.2248C50.5926 39.0596 48.6287 42.6925 45.6284 45.4148ZM54.5473 38.031H52.3603C52.6541 37.0769 52.8756 36.0971 53.02 35.0991H54.5472C55.3562 35.0991 56.0143 35.7567 56.0143 36.5651C56.0143 37.3734 55.3562 38.031 54.5473 38.031Z" fill="#391E25"/>
</g>
<defs>
<clipPath id="clip0">
<rect width="58" height="58" fill="white"/>
</clipPath>
</defs>
</svg>
