<svg width="58" height="58" viewBox="0 0 58 58" fill="none" xmlns="http://www.w3.org/2000/svg">
<g clip-path="url(#clip0)">
<path d="M57.7291 0.271006C57.3676 -0.0903354 56.7815 -0.0903354 56.4202 0.271006L53.5189 3.17235C52.7682 2.6739 51.8879 2.40598 50.9663 2.40598C49.7301 2.40598 48.5679 2.8874 47.694 3.76138C46.8199 4.63549 46.3386 5.79763 46.3386 7.03394C46.3386 7.95556 46.6065 8.83584 47.1048 9.58641L43.8944 12.7968L41.0584 9.96083C40.4174 9.31985 39.5651 8.96677 38.6587 8.96677C37.7523 8.96677 36.9 9.31972 36.259 9.96071C34.9358 11.284 34.9358 13.437 36.259 14.7603L39.0951 17.5964L37.7862 18.9053L34.95 16.0691C34.309 15.4282 33.4568 15.0751 32.5503 15.0751C31.6439 15.0751 30.7916 15.4281 30.1506 16.0691L27.0964 19.1233C26.4554 19.7643 26.1023 20.6167 26.1023 21.5231C26.1023 22.4296 26.4553 23.2818 27.0964 23.9228L29.9324 26.7588L28.6234 28.0678L25.7875 25.2318C25.1465 24.5908 24.2943 24.2378 23.3877 24.2378C22.4813 24.2378 21.629 24.5907 20.988 25.2317C20.347 25.8726 19.9939 26.725 19.9939 27.6314C19.9939 28.5378 20.3469 29.3902 20.988 30.0312L23.8241 32.8671L22.5019 34.1893C20.3882 32.2455 18.4239 31.2611 16.654 31.2611C15.5448 31.2611 14.5541 31.6655 13.7889 32.4309C12.7406 33.4793 12.382 34.9429 12.7792 36.5523C13.133 37.9857 14.0635 39.5272 15.5479 41.1433L14.2252 42.466L11.3886 39.6303C10.7477 38.9895 9.89539 38.6364 8.98895 38.6364C8.08239 38.6364 7.23025 38.9893 6.58927 39.6303C5.94828 40.2713 5.59521 41.1237 5.59521 42.0301C5.59521 42.9366 5.94828 43.789 6.58927 44.4298L9.42533 47.2659L6.58927 50.1021C6.2278 50.4635 6.2278 51.0495 6.58927 51.4108C7.67181 52.4935 7.67181 54.255 6.58927 55.3376C5.50647 56.4204 3.74506 56.4202 2.66239 55.3377C1.57985 54.255 1.57985 52.4935 2.66239 51.4108C3.02386 51.0494 3.02386 50.4633 2.66239 50.1019C2.30093 49.7406 1.71486 49.7405 1.35352 50.1021C-0.450847 51.9063 -0.450847 54.8423 1.35352 56.6467C2.25576 57.5489 3.44086 58 4.62595 58C5.81105 58 6.99615 57.5489 7.89839 56.6466C9.47864 55.0663 9.67474 52.618 8.48717 50.8223L10.7345 48.5749L13.5706 51.4111C14.2116 52.0519 15.0639 52.4051 15.9703 52.4051C16.8768 52.405 17.729 52.0521 18.37 51.4111C19.6932 50.0878 19.6932 47.9348 18.37 46.6115L15.5339 43.7754L16.8563 42.4531C18.9697 44.3966 20.934 45.3811 22.704 45.3813C23.8135 45.3813 24.8041 44.9769 25.5692 44.2116C26.6176 43.1633 26.9762 41.6996 26.5789 40.0903C26.2251 38.6569 25.2946 37.1154 23.8102 35.4992L25.1329 34.1765L27.969 37.0126C28.61 37.6534 29.4623 38.0065 30.3688 38.0066C31.2753 38.0065 32.1275 37.6536 32.7685 37.0126C34.0917 35.6893 34.0917 33.5363 32.7685 32.213L29.9324 29.377L31.2414 28.068L34.0774 30.904C34.7182 31.5449 35.5705 31.898 36.4771 31.8981C37.3838 31.8981 38.2359 31.5451 38.8769 30.9041L41.9311 27.85C43.2543 26.5266 43.2543 24.3736 41.9311 23.0503L39.0952 20.2143L40.4041 18.9054L43.2401 21.7415C43.8811 22.3823 44.7334 22.7354 45.6399 22.7355C46.5464 22.7355 47.3986 22.3824 48.0396 21.7415C48.6806 21.1005 49.0337 20.2481 49.0337 19.3418C49.0337 18.4352 48.6807 17.5829 48.0396 16.942L45.2036 14.106L48.4139 10.8957C49.1645 11.3941 50.0449 11.662 50.9665 11.662C52.2027 11.662 53.3648 11.1806 54.239 10.3066C55.8193 8.72625 56.0154 6.27806 54.8276 4.48209L57.7295 1.58025C58.0905 1.21854 58.0905 0.632594 57.7291 0.271006ZM17.0609 50.1019C16.7695 50.3933 16.3821 50.5539 15.9701 50.5539C15.558 50.5539 15.1706 50.3933 14.8793 50.1019L7.89814 43.1208C7.6069 42.8296 7.44634 42.4422 7.44634 42.0301C7.44634 41.6181 7.60677 41.2306 7.89814 40.9392C8.18951 40.648 8.57689 40.4875 8.98883 40.4875C9.40077 40.4875 9.7884 40.648 10.0796 40.9393L13.569 44.4287C13.5714 44.4312 17.0608 47.9204 17.0608 47.9204C17.6623 48.5218 17.6623 49.5006 17.0609 50.1019ZM24.2601 42.9028C23.8437 43.319 23.3203 43.5302 22.7044 43.5302C21.2983 43.5299 19.4492 42.4549 17.4973 40.5029C14.6286 37.6344 13.7314 35.1063 15.0975 33.7401C15.5138 33.3238 16.0373 33.1126 16.6536 33.1126C18.0588 33.1126 19.9074 34.1872 21.859 36.1385C23.4564 37.7361 24.466 39.255 24.7816 40.5338C25.0242 41.5171 24.8487 42.3141 24.2601 42.9028ZM31.4594 35.7035C31.168 35.9948 30.7806 36.1554 30.3686 36.1554C29.9565 36.1554 29.5691 35.9948 29.2778 35.7035L22.2968 28.7225C22.0054 28.4312 21.845 28.0437 21.845 27.6316C21.845 27.2196 22.0054 26.8322 22.2968 26.541C22.5881 26.2496 22.9755 26.0892 23.3876 26.0892C23.7996 26.0892 24.187 26.2496 24.4784 26.541L27.9686 30.0312C27.9693 30.0318 31.4595 33.5221 31.4595 33.5221C32.0608 34.1233 32.0608 35.1021 31.4594 35.7035ZM41.0738 25.45C41.0738 25.8621 40.9134 26.2496 40.622 26.5408L37.5678 29.5951C37.2764 29.8863 36.889 30.0469 36.4771 30.0469C36.0649 30.0469 35.6775 29.8863 35.3861 29.595L28.4051 22.614C28.1138 22.3227 27.9533 21.9352 27.9533 21.5233C27.9533 21.1112 28.1138 20.7237 28.4051 20.4325L31.4594 17.3782C31.7508 17.087 32.1381 16.9264 32.5502 16.9264C32.9623 16.9264 33.3496 17.0868 33.641 17.3782L37.1313 20.8686C37.1319 20.8692 40.622 24.3595 40.622 24.3595C40.9134 24.6507 41.0738 25.0381 41.0738 25.45ZM47.1822 19.3416C47.1822 19.7536 47.0218 20.1411 46.7304 20.4323C46.439 20.7237 46.0516 20.8843 45.6396 20.8843C45.2275 20.8843 44.8401 20.7237 44.5488 20.4323L37.5678 13.4513C36.9663 12.85 36.9663 11.8712 37.5678 11.2698C37.8591 10.9785 38.2465 10.818 38.6586 10.818C39.0706 10.818 39.458 10.9785 39.7494 11.2698L43.2396 14.7601C43.2403 14.7607 46.7305 18.251 46.7305 18.251C47.0217 18.5422 47.1822 18.9296 47.1822 19.3416ZM52.9297 8.99738C52.4052 9.52187 51.708 9.81077 50.9663 9.81077C50.2246 9.81077 49.5273 9.52187 49.0028 8.99738C48.4783 8.47301 48.1896 7.77575 48.1896 7.03407C48.1896 6.29225 48.4783 5.59499 49.0028 5.07051C49.5273 4.54614 50.2246 4.25724 50.9663 4.25724C51.708 4.25724 52.4052 4.54614 52.9297 5.07063C54.0124 6.15317 54.0124 7.91471 52.9297 8.99738Z" fill="#391E25"/>
<path d="M37.5675 26.1045C37.9284 26.4654 38.5155 26.4654 38.8765 26.1045C39.2375 25.7437 39.2374 25.1565 38.8765 24.7955C38.5157 24.4347 37.9285 24.4347 37.5675 24.7955C37.2067 25.1564 37.2067 25.7437 37.5675 26.1045Z" fill="#391E25"/>
<path d="M33.8589 22.8322C33.498 23.193 33.498 23.7802 33.8589 24.141C34.2197 24.5019 34.8069 24.5019 35.1679 24.141C35.5288 23.7802 35.5288 23.193 35.1679 22.8322C34.8069 22.4713 34.2197 22.4713 33.8589 22.8322Z" fill="#391E25"/>
<path d="M16.3236 34.9664C15.9628 35.3273 15.9628 35.9145 16.3236 36.2753C16.6845 36.6362 17.2716 36.6362 17.6326 36.2753C17.9935 35.9145 17.9935 35.3273 17.6326 34.9664C17.2718 34.6056 16.6845 34.6056 16.3236 34.9664Z" fill="#391E25"/>
</g>
<defs>
<clipPath id="clip0">
<rect width="58" height="58" fill="white"/>
</clipPath>
</defs>
</svg>
