<svg width="14" height="23" viewBox="0 0 14 23" fill="none" xmlns="http://www.w3.org/2000/svg">
<path fill-rule="evenodd" clip-rule="evenodd" d="M7.35725 11.8081C10.615 11.8081 13.2632 9.25148 13.2632 6.10851C13.2632 2.96452 10.615 0.407227 7.35725 0.407227C4.10019 0.407227 1.45129 2.96452 1.45129 6.10851C1.45129 9.25148 4.10019 11.8081 7.35725 11.8081Z" fill="white"/>
<path fill-rule="evenodd" clip-rule="evenodd" d="M9.76196 16.4613C10.9641 16.1969 12.1236 15.7378 13.1915 15.0903C13.9996 14.5985 14.2431 13.5673 13.7339 12.7872C13.225 12.0054 12.1575 11.77 11.3479 12.2619C8.9287 13.7303 5.81405 13.73 3.39626 12.2619C2.58668 11.77 1.51878 12.0054 1.01098 12.7872C0.501771 13.568 0.74454 14.5985 1.55271 15.0903C2.62061 15.7371 3.78003 16.1969 4.98221 16.4613L1.68028 19.6486C1.00533 20.3008 1.00533 21.3582 1.68098 22.0104C2.01916 22.3362 2.46159 22.4992 2.90401 22.4992C3.34715 22.4992 3.79028 22.3362 4.12846 22.0104L7.37173 18.8783L10.6178 22.0104C11.2928 22.6626 12.3879 22.6626 13.0635 22.0104C13.7399 21.3582 13.7399 20.3001 13.0635 19.6486L9.76196 16.4613Z" fill="white"/>
<path fill-rule="evenodd" clip-rule="evenodd" d="M7.3571 3.74878C8.70557 3.74878 9.80245 4.80724 9.80245 6.10891C9.80245 7.40955 8.70557 8.46869 7.3571 8.46869C6.00968 8.46869 4.91174 7.40955 4.91174 6.10891C4.91174 4.80724 6.00968 3.74878 7.3571 3.74878Z" fill="#311E13"/>
</svg>
