<svg width="12" height="19" viewBox="0 0 12 19" fill="none" xmlns="http://www.w3.org/2000/svg">
<path fill-rule="evenodd" clip-rule="evenodd" d="M6.47579 9.46954C9.18168 9.46954 11.3813 7.34602 11.3813 4.73548C11.3813 2.12408 9.18168 0 6.47579 0C3.77048 0 1.57031 2.12408 1.57031 4.73548C1.57031 7.34602 3.77048 9.46954 6.47579 9.46954Z" fill="#EE8208"/>
<path fill-rule="evenodd" clip-rule="evenodd" d="M8.47318 13.3345C9.4717 13.115 10.4347 12.7336 11.3217 12.1958C11.993 11.7873 12.1952 10.9308 11.7723 10.2828C11.3496 9.63347 10.4629 9.43797 9.79046 9.84653C7.78107 11.0662 5.19405 11.066 3.18584 9.84653C2.5134 9.43797 1.62641 9.63347 1.20463 10.2828C0.781681 10.9314 0.983324 11.7873 1.65459 12.1958C2.54158 12.733 3.5046 13.115 4.50313 13.3345L1.76055 15.9819C1.19994 16.5236 1.19994 17.4019 1.76113 17.9436C2.04202 18.2142 2.4095 18.3496 2.77698 18.3496C3.14504 18.3496 3.51311 18.2142 3.794 17.9436L6.48786 15.3422L9.18406 17.9436C9.74467 18.4854 10.6543 18.4854 11.2155 17.9436C11.7772 17.4019 11.7772 16.5231 11.2155 15.9819L8.47318 13.3345Z" fill="#EE8208"/>
<path fill-rule="evenodd" clip-rule="evenodd" d="M6.47544 2.77541C7.59549 2.77541 8.50655 3.65456 8.50655 4.73572C8.50655 5.81604 7.59549 6.69576 6.47544 6.69576C5.35628 6.69576 4.44434 5.81604 4.44434 4.73572C4.44434 3.65456 5.35628 2.77541 6.47544 2.77541Z" fill="white"/>
</svg>
