<svg viewBox="0 0 694 445" fill="none" xmlns="http://www.w3.org/2000/svg" xmlns:xlink="http://www.w3.org/1999/xlink">
<style>
	.path-effect{
		cursor: pointer;
		fill: red;
	}
	.path-effect.active{
		fill: #4caf50;
		fill-opacity: 0.5;
	}
	.path-effect.disabled{
		fill: red;
		fill-opacity: 0.5;
	}
	.path-effect:hover{
		outline: 5px solid #4caf50;
	}
	.path-effect.active:hover,
	.path-effect.disabled:hover{
		outline: none;
	}
</style>

<path class="path-effect active" fill-rule="evenodd" clip-rule="evenodd" d="M58.58 9H110.2V108.68H58.58V9ZM39 16.12H44.34H55.91V41.04H44.34H39V16.12ZM39 46.38H44.34H55.91V71.3H44.34H39V46.38ZM39 76.64H44.34H55.91V101.56H44.34H39V76.64ZM128.89 101.56H123.55H111.98L111.98 76.64H123.55H128.89V101.56ZM128.89 71.3H123.55H111.98L111.98 46.38H123.55H128.89V71.3ZM128.89 41.04H123.55H111.98L111.98 16.12L123.55 16.12L128.89 16.12V41.04Z" fill="#C4C4C4" fill-opacity="0.1"/>
<path class="path-effect disabled" fill-rule="evenodd" clip-rule="evenodd" d="M373.58 9H425.2V108.68H373.58V9ZM354 16.12H359.34H370.91V41.04H359.34H354V16.12ZM354 46.38H359.34H370.91V71.3H359.34H354V46.38ZM354 76.64H359.34H370.91V101.56H359.34H354V76.64ZM443.89 101.56H438.55H426.98L426.98 76.64H438.55H443.89V101.56ZM443.89 71.3H438.55H426.98L426.98 46.38H438.55H443.89V71.3ZM443.89 41.04H438.55H426.98L426.98 16.12L438.55 16.12L443.89 16.12V41.04Z" fill="#C4C4C4" fill-opacity="0.1"/>
<path class="path-effect" fill-rule="evenodd" clip-rule="evenodd" d="M163.58 9H215.2V108.68H163.58V9ZM144 16.12H149.34H160.91V41.04H149.34H144V16.12ZM144 46.38H149.34H160.91V71.3H149.34H144V46.38ZM144 76.64H149.34H160.91V101.56H149.34H144V76.64ZM233.89 101.56H228.55H216.98L216.98 76.64H228.55H233.89V101.56ZM233.89 71.3H228.55H216.98L216.98 46.38H228.55H233.89V71.3ZM233.89 41.04H228.55H216.98L216.98 16.12L228.55 16.12L233.89 16.12V41.04Z" fill="#C4C4C4" fill-opacity="0.1"/>
<path class="path-effect" fill-rule="evenodd" clip-rule="evenodd" d="M478.58 9H530.2V108.68H478.58V9ZM459 16.12H464.34H475.91V41.04H464.34H459V16.12ZM459 46.38H464.34H475.91V71.3H464.34H459V46.38ZM459 76.64H464.34H475.91V101.56H464.34H459V76.64ZM548.89 101.56H543.55H531.98L531.98 76.64H543.55H548.89V101.56ZM548.89 71.3H543.55H531.98L531.98 46.38H543.55H548.89V71.3ZM548.89 41.04H543.55H531.98L531.98 16.12L543.55 16.12L548.89 16.12V41.04Z" fill="#C4C4C4" fill-opacity="0.1"/>
<path class="path-effect" fill-rule="evenodd" clip-rule="evenodd" d="M268.58 9H320.2V108.68H268.58V9ZM249 16.12H254.34H265.91V41.04H254.34H249V16.12ZM249 46.38H254.34H265.91V71.3H254.34H249V46.38ZM249 76.64H254.34H265.91V101.56H254.34H249V76.64ZM338.89 101.56H333.55H321.98L321.98 76.64H333.55H338.89V101.56ZM338.89 71.3H333.55H321.98L321.98 46.38H333.55H338.89V71.3ZM338.89 41.04H333.55H321.98L321.98 16.12L333.55 16.12L338.89 16.12V41.04Z" fill="#C4C4C4" fill-opacity="0.1"/>
<path class="path-effect" fill-rule="evenodd" clip-rule="evenodd" d="M583.58 9H635.2V108.68H583.58V9ZM564 16.12H569.34H580.91V41.04H569.34H564V16.12ZM564 46.38H569.34H580.91V71.3H569.34H564V46.38ZM564 76.64H569.34H580.91V101.56H569.34H564V76.64ZM653.89 101.56H648.55H636.98L636.98 76.64H648.55H653.89V101.56ZM653.89 71.3H648.55H636.98L636.98 46.38H648.55H653.89V71.3ZM653.89 41.04H648.55H636.98L636.98 16.12L648.55 16.12L653.89 16.12V41.04Z" fill="#C4C4C4" fill-opacity="0.1"/>
<path class="path-effect" fill-rule="evenodd" clip-rule="evenodd" d="M585.04 131V136.34V147.91H560.12L560.12 136.34V131L585.04 131ZM615.3 131V136.34V147.91L590.38 147.91V136.34V131L615.3 131ZM645.56 131V136.34V147.91L620.64 147.91V136.34V131H645.56ZM652.68 150.58V202.2L553 202.2L553 150.58L652.68 150.58ZM560.12 220.89L560.12 215.55L560.12 203.98H585.04V215.55V220.89L560.12 220.89ZM590.38 220.89V215.55V203.98H615.3V215.55V220.89H590.38ZM620.64 220.89V215.55V203.98H645.56V215.55V220.89H620.64Z" fill="#C4C4C4" fill-opacity="0.1"/>
<path class="path-effect" fill-rule="evenodd" clip-rule="evenodd" d="M585.04 237V242.34V253.91H560.12L560.12 242.34V237L585.04 237ZM615.3 237V242.34V253.91L590.38 253.91V242.34V237L615.3 237ZM645.56 237V242.34V253.91L620.64 253.91V242.34V237H645.56ZM652.68 256.58V308.2L553 308.2L553 256.58L652.68 256.58ZM560.12 326.89L560.12 321.55L560.12 309.98H585.04V321.55V326.89L560.12 326.89ZM590.38 326.89V321.55V309.98H615.3V321.55V326.89H590.38ZM620.64 326.89V321.55V309.98H645.56V321.55V326.89H620.64Z" fill="#C4C4C4" fill-opacity="0.1"/>
<path class="path-effect" fill-rule="evenodd" clip-rule="evenodd" d="M585.04 342V347.34V358.91H560.12L560.12 347.34V342L585.04 342ZM615.3 342V347.34V358.91L590.38 358.91V347.34V342L615.3 342ZM645.56 342V347.34V358.91L620.64 358.91V347.34V342H645.56ZM652.68 361.58V413.2L553 413.2L553 361.58L652.68 361.58ZM560.12 431.89L560.12 426.55L560.12 414.98H585.04V426.55V431.89L560.12 431.89ZM590.38 431.89V426.55V414.98H615.3V426.55V431.89H590.38ZM620.64 431.89V426.55V414.98H645.56V426.55V431.89H620.64Z" fill="#C4C4C4" fill-opacity="0.1"/>
</svg>