<svg width="24" height="14" viewBox="0 0 24 14" fill="none" xmlns="http://www.w3.org/2000/svg">
<path fill-rule="evenodd" clip-rule="evenodd" d="M13.3721 13.7038C13.3721 13.7038 13.7974 13.6575 14.0152 13.4278C14.2146 13.2174 14.2077 12.8202 14.2077 12.8202C14.2077 12.8202 14.1812 10.9659 15.0583 10.6922C15.9227 10.4229 17.0327 12.4854 18.2106 13.2784C19.1004 13.8781 19.7758 13.7468 19.7758 13.7468L22.9235 13.7038C22.9235 13.7038 24.5694 13.6043 23.7891 12.3338C23.7245 12.2297 23.3338 11.3936 21.4493 9.67619C19.475 7.87846 19.7401 8.16922 22.1167 5.0591C23.5643 3.1652 24.1429 2.00895 23.9619 1.51454C23.7902 1.04163 22.7252 1.16722 22.7252 1.16722L19.1822 1.18871C19.1822 1.18871 18.9194 1.15364 18.7247 1.26791C18.5345 1.37991 18.4112 1.64126 18.4112 1.64126C18.4112 1.64126 17.851 3.10637 17.103 4.35313C15.5251 6.98242 14.8946 7.12158 14.6365 6.95866C14.036 6.57739 14.1858 5.42906 14.1858 4.61335C14.1858 2.06439 14.58 1.00204 13.4194 0.727116C13.0344 0.635475 12.7509 0.575513 11.7654 0.565331C10.501 0.552886 9.43145 0.569856 8.8252 0.860616C8.42179 1.05408 8.1106 1.48626 8.30077 1.51115C8.53475 1.5417 9.06493 1.65144 9.34616 2.02705C9.70922 2.51241 9.69654 3.60078 9.69654 3.60078C9.69654 3.60078 9.90516 6.60115 9.209 6.97337C8.73184 7.22905 8.07717 6.7075 6.66988 4.32145C5.94952 3.09958 5.40551 1.74874 5.40551 1.74874C5.40551 1.74874 5.30062 1.49644 5.11276 1.36068C4.8857 1.19663 4.56874 1.14572 4.56874 1.14572L1.20207 1.16722C1.20207 1.16722 0.696093 1.18079 0.510528 1.39688C0.34571 1.58808 0.49785 1.98519 0.49785 1.98519C0.49785 1.98519 3.13379 8.03911 6.11895 11.0904C8.85631 13.8871 11.9637 13.7038 11.9637 13.7038H13.3721Z" fill="white"/>
</svg>
