<svg width="20" height="11" viewBox="0 0 20 11" fill="none" xmlns="http://www.w3.org/2000/svg">
<path fill-rule="evenodd" clip-rule="evenodd" d="M10.7465 10.9152C10.7465 10.9152 11.0997 10.8766 11.2807 10.6859C11.4463 10.5111 11.4406 10.1813 11.4406 10.1813C11.4406 10.1813 11.4185 8.64108 12.1471 8.41367C12.8651 8.19002 13.787 9.90311 14.7653 10.5618C15.5044 11.0599 16.0654 10.9509 16.0654 10.9509L18.6799 10.9152C18.6799 10.9152 20.0469 10.8325 19.3988 9.77719C19.3452 9.69073 19.0207 8.99629 17.4554 7.56982C15.8155 6.07662 16.0357 6.31813 18.0097 3.73487C19.2121 2.1618 19.6927 1.20142 19.5424 0.790766C19.3998 0.397968 18.5152 0.502276 18.5152 0.502276L15.5724 0.52013C15.5724 0.52013 15.3541 0.490999 15.1923 0.58591C15.0344 0.678941 14.9319 0.896013 14.9319 0.896013C14.9319 0.896013 14.4667 2.11293 13.8454 3.14849C12.5348 5.33237 12.0111 5.44796 11.7967 5.31264C11.2979 4.99596 11.4224 4.04215 11.4224 3.36462C11.4224 1.24746 11.7498 0.365078 10.7857 0.136729C10.466 0.060613 10.2305 0.0108085 9.41198 0.00235118C8.3618 -0.0079856 7.4734 0.00611 6.96985 0.247615C6.63478 0.408305 6.3763 0.767273 6.53426 0.787947C6.7286 0.813319 7.16897 0.90447 7.40256 1.21645C7.70411 1.61959 7.69358 2.52359 7.69358 2.52359C7.69358 2.52359 7.86686 5.01569 7.28864 5.32485C6.8923 5.53723 6.34854 5.10402 5.17965 3.12218C4.58132 2.1073 4.12946 0.985285 4.12946 0.985285C4.12946 0.985285 4.04234 0.77573 3.8863 0.662966C3.69771 0.526708 3.43444 0.484421 3.43444 0.484421L0.638094 0.502276C0.638094 0.502276 0.217828 0.513552 0.0636989 0.693036C-0.0731987 0.851847 0.0531683 1.18168 0.0531683 1.18168C0.0531683 1.18168 2.24257 6.21006 4.72205 8.74445C6.99569 11.0674 9.57664 10.9152 9.57664 10.9152H10.7465Z" fill="#4A76A8"/>
</svg>
